<?xml version="1.0" encoding="UTF-8"?>
<!--Generator: Apple Native CoreSVG 149-->
<!DOCTYPE svg
PUBLIC "-//W3C//DTD SVG 1.1//EN"
       "http://www.w3.org/Graphics/SVG/1.1/DTD/svg11.dtd">
<svg version="1.1" xmlns="http://www.w3.org/2000/svg" xmlns:xlink="http://www.w3.org/1999/xlink" width="3300" height="2200">
 <!--glyph: "uni1001D4.medium", point size: 100.000000, font version: "Version 16.0d12e3", template writer version: "8"-->
 <g id="Notes">
  <rect height="2200" id="artboard" style="fill:white;opacity:1" width="3300" x="0" y="0"/>
  <line id="" style="fill:none;stroke:black;opacity:1;stroke-width:0.5;" x1="263" x2="3036" y1="292" y2="292"/>
  <text style="stroke:none;fill:black;font-family:-apple-system,&quot;SF Pro Display&quot;,&quot;SF Pro Text&quot;,Helvetica,sans-serif;font-weight:bold;" transform="matrix(1 0 0 1 263 322)">Weight/Scale Variations</text>
  <text style="stroke:none;fill:black;font-family:-apple-system,&quot;SF Pro Display&quot;,&quot;SF Pro Text&quot;,Helvetica,sans-serif;text-anchor:middle;" transform="matrix(1 0 0 1 559.711 322)">Ultralight</text>
  <text style="stroke:none;fill:black;font-family:-apple-system,&quot;SF Pro Display&quot;,&quot;SF Pro Text&quot;,Helvetica,sans-serif;text-anchor:middle;" transform="matrix(1 0 0 1 856.422 322)">Thin</text>
  <text style="stroke:none;fill:black;font-family:-apple-system,&quot;SF Pro Display&quot;,&quot;SF Pro Text&quot;,Helvetica,sans-serif;text-anchor:middle;" transform="matrix(1 0 0 1 1153.13 322)">Light</text>
  <text style="stroke:none;fill:black;font-family:-apple-system,&quot;SF Pro Display&quot;,&quot;SF Pro Text&quot;,Helvetica,sans-serif;text-anchor:middle;" transform="matrix(1 0 0 1 1449.84 322)">Regular</text>
  <text style="stroke:none;fill:black;font-family:-apple-system,&quot;SF Pro Display&quot;,&quot;SF Pro Text&quot;,Helvetica,sans-serif;text-anchor:middle;" transform="matrix(1 0 0 1 1746.56 322)">Medium</text>
  <text style="stroke:none;fill:black;font-family:-apple-system,&quot;SF Pro Display&quot;,&quot;SF Pro Text&quot;,Helvetica,sans-serif;text-anchor:middle;" transform="matrix(1 0 0 1 2043.27 322)">Semibold</text>
  <text style="stroke:none;fill:black;font-family:-apple-system,&quot;SF Pro Display&quot;,&quot;SF Pro Text&quot;,Helvetica,sans-serif;text-anchor:middle;" transform="matrix(1 0 0 1 2339.98 322)">Bold</text>
  <text style="stroke:none;fill:black;font-family:-apple-system,&quot;SF Pro Display&quot;,&quot;SF Pro Text&quot;,Helvetica,sans-serif;text-anchor:middle;" transform="matrix(1 0 0 1 2636.69 322)">Heavy</text>
  <text style="stroke:none;fill:black;font-family:-apple-system,&quot;SF Pro Display&quot;,&quot;SF Pro Text&quot;,Helvetica,sans-serif;text-anchor:middle;" transform="matrix(1 0 0 1 2933.4 322)">Black</text>
  <line id="" style="fill:none;stroke:black;opacity:1;stroke-width:0.5;" x1="263" x2="3036" y1="1903" y2="1903"/>
  <g id="" transform="matrix(1 0 0 1 263 1933)">
   <path d="M9.24805 0.830078C13.5547 0.830078 17.1387-2.74414 17.1387-7.05078C17.1387-11.3574 13.5449-14.9316 9.23828-14.9316C4.94141-14.9316 1.36719-11.3574 1.36719-7.05078C1.36719-2.74414 4.95117 0.830078 9.24805 0.830078ZM9.24805-0.654297C5.70312-0.654297 2.87109-3.49609 2.87109-7.05078C2.87109-10.6055 5.69336-13.4473 9.23828-13.4473C12.793-13.4473 15.6348-10.6055 15.6445-7.05078C15.6543-3.49609 12.8027-0.654297 9.24805-0.654297ZM9.22852-3.62305C9.69727-3.62305 9.9707-3.93555 9.9707-4.45312L9.9707-6.31836L12.002-6.31836C12.5-6.31836 12.832-6.57227 12.832-7.04102C12.832-7.51953 12.5195-7.7832 12.002-7.7832L9.9707-7.7832L9.9707-9.81445C9.9707-10.332 9.69727-10.6543 9.22852-10.6543C8.75977-10.6543 8.50586-10.3125 8.50586-9.81445L8.50586-7.7832L6.49414-7.7832C5.97656-7.7832 5.64453-7.51953 5.64453-7.04102C5.64453-6.57227 5.99609-6.31836 6.49414-6.31836L8.50586-6.31836L8.50586-4.45312C8.50586-3.95508 8.75977-3.62305 9.22852-3.62305Z"/>
  </g>
  <g id="" transform="matrix(1 0 0 1 281.506 1933)">
   <path d="M11.709 2.91016C17.1582 2.91016 21.6699-1.61133 21.6699-7.05078C21.6699-12.5 17.1484-17.0117 11.6992-17.0117C6.25977-17.0117 1.74805-12.5 1.74805-7.05078C1.74805-1.61133 6.26953 2.91016 11.709 2.91016ZM11.709 1.25C7.09961 1.25 3.41797-2.44141 3.41797-7.05078C3.41797-11.6602 7.08984-15.3516 11.6992-15.3516C16.3086-15.3516 20-11.6602 20.0098-7.05078C20.0195-2.44141 16.3184 1.25 11.709 1.25ZM11.6797-2.66602C12.207-2.66602 12.5098-3.01758 12.5098-3.59375L12.5098-6.23047L15.3223-6.23047C15.8691-6.23047 16.25-6.51367 16.25-7.03125C16.25-7.55859 15.8887-7.86133 15.3223-7.86133L12.5098-7.86133L12.5098-10.6836C12.5098-11.25 12.207-11.6113 11.6797-11.6113C11.1621-11.6113 10.8789-11.2305 10.8789-10.6836L10.8789-7.86133L8.07617-7.86133C7.50977-7.86133 7.13867-7.55859 7.13867-7.03125C7.13867-6.51367 7.5293-6.23047 8.07617-6.23047L10.8789-6.23047L10.8789-3.59375C10.8789-3.03711 11.1621-2.66602 11.6797-2.66602Z"/>
  </g>
  <g id="" transform="matrix(1 0 0 1 304.924 1933)">
   <path d="M14.9707 5.66406C21.9336 5.66406 27.6953-0.0976562 27.6953-7.05078C27.6953-14.0137 21.9238-19.7754 14.9609-19.7754C8.00781-19.7754 2.25586-14.0137 2.25586-7.05078C2.25586-0.0976562 8.01758 5.66406 14.9707 5.66406ZM14.9707 3.84766C8.93555 3.84766 4.08203-1.01562 4.08203-7.05078C4.08203-13.0957 8.92578-17.9492 14.9609-17.9492C21.0059-17.9492 25.8594-13.0957 25.8691-7.05078C25.8789-1.01562 21.0156 3.84766 14.9707 3.84766ZM14.9414-1.38672C15.5176-1.38672 15.8594-1.77734 15.8594-2.38281L15.8594-6.13281L19.7754-6.13281C20.3711-6.13281 20.7812-6.46484 20.7812-7.02148C20.7812-7.59766 20.3906-7.93945 19.7754-7.93945L15.8594-7.93945L15.8594-11.8652C15.8594-12.4805 15.5176-12.8711 14.9414-12.8711C14.375-12.8711 14.0527-12.4609 14.0527-11.8652L14.0527-7.93945L10.1465-7.93945C9.53125-7.93945 9.13086-7.59766 9.13086-7.02148C9.13086-6.46484 9.55078-6.13281 10.1465-6.13281L14.0527-6.13281L14.0527-2.38281C14.0527-1.79688 14.375-1.38672 14.9414-1.38672Z"/>
  </g>
  <text style="stroke:none;fill:black;font-family:-apple-system,&quot;SF Pro Display&quot;,&quot;SF Pro Text&quot;,Helvetica,sans-serif;font-weight:bold;" transform="matrix(1 0 0 1 263 1953)">Design Variations</text>
  <text style="stroke:none;fill:black;font-family:-apple-system,&quot;SF Pro Display&quot;,&quot;SF Pro Text&quot;,Helvetica,sans-serif;" transform="matrix(1 0 0 1 263 1971)">Symbols are supported in up to nine weights and three scales.</text>
  <text style="stroke:none;fill:black;font-family:-apple-system,&quot;SF Pro Display&quot;,&quot;SF Pro Text&quot;,Helvetica,sans-serif;" transform="matrix(1 0 0 1 263 1989)">For optimal layout with text and other symbols, vertically align</text>
  <text style="stroke:none;fill:black;font-family:-apple-system,&quot;SF Pro Display&quot;,&quot;SF Pro Text&quot;,Helvetica,sans-serif;" transform="matrix(1 0 0 1 263 2007)">symbols with the adjacent text.</text>
  <line id="" style="fill:none;stroke:#00AEEF;stroke-width:0.5;opacity:1.0;" x1="776" x2="776" y1="1919" y2="1933"/>
  <g id="" transform="matrix(1 0 0 1 776 1933)">
   <path d="M3.31055 0.126953C3.82812 0.126953 4.08203-0.0683594 4.26758-0.605469L5.52734-4.0625L11.2891-4.0625L12.5488-0.605469C12.7344-0.0683594 12.9883 0.126953 13.4961 0.126953C14.0137 0.126953 14.3457-0.185547 14.3457-0.673828C14.3457-0.839844 14.3164-0.986328 14.2383-1.20117L9.6582-13.3887C9.43359-13.9941 9.0332-14.2871 8.4082-14.2871C7.80273-14.2871 7.39258-13.9941 7.17773-13.3984L2.59766-1.19141C2.51953-0.976562 2.49023-0.830078 2.49023-0.664062C2.49023-0.175781 2.80273 0.126953 3.31055 0.126953ZM6.00586-5.53711L8.37891-12.1094L8.42773-12.1094L10.8008-5.53711Z"/>
  </g>
  <line id="" style="fill:none;stroke:#00AEEF;stroke-width:0.5;opacity:1.0;" x1="792.836" x2="792.836" y1="1919" y2="1933"/>
  <text style="stroke:none;fill:black;font-family:-apple-system,&quot;SF Pro Display&quot;,&quot;SF Pro Text&quot;,Helvetica,sans-serif;font-weight:bold;" transform="matrix(1 0 0 1 776 1953)">Margins</text>
  <text style="stroke:none;fill:black;font-family:-apple-system,&quot;SF Pro Display&quot;,&quot;SF Pro Text&quot;,Helvetica,sans-serif;" transform="matrix(1 0 0 1 776 1971)">Leading and trailing margins on the left and right side of each symbol</text>
  <text style="stroke:none;fill:black;font-family:-apple-system,&quot;SF Pro Display&quot;,&quot;SF Pro Text&quot;,Helvetica,sans-serif;" transform="matrix(1 0 0 1 776 1989)">can be adjusted by modifying the x-location of the margin guidelines.</text>
  <text style="stroke:none;fill:black;font-family:-apple-system,&quot;SF Pro Display&quot;,&quot;SF Pro Text&quot;,Helvetica,sans-serif;" transform="matrix(1 0 0 1 776 2007)">Modifications are automatically applied proportionally to all</text>
  <text style="stroke:none;fill:black;font-family:-apple-system,&quot;SF Pro Display&quot;,&quot;SF Pro Text&quot;,Helvetica,sans-serif;" transform="matrix(1 0 0 1 776 2025)">scales and weights.</text>
  <g id="" transform="matrix(1 0 0 1 1289 1933)">
   <path d="M2.8418 1.86523L4.54102 3.57422C5.40039 4.44336 6.38672 4.38477 7.31445 3.35938L17.4902-7.85156C17.7539-7.76367 18.0273-7.7832 18.3398-7.8418L19.4043-8.03711L20.0684-7.36328L20.0293-6.80664C19.9902-6.30859 20.1172-5.92773 20.6055-5.44922L21.3672-4.70703C21.8457-4.22852 22.4609-4.19922 22.9297-4.66797L25.8398-7.58789C26.3086-8.05664 26.2891-8.65234 25.8105-9.13086L25.0391-9.89258C24.5605-10.3711 24.1895-10.5273 23.7109-10.4883L23.1348-10.4395L22.4902-11.0742L22.7344-12.1973C22.8613-12.7637 22.7051-13.2031 22.1191-13.7891L19.9219-15.9766C16.582-19.2969 12.1484-19.2188 9.25781-16.3281C8.83789-15.918 8.80859-15.3418 9.04297-14.9512C9.27734-14.5898 9.73633-14.3555 10.3809-14.5215C11.8457-14.8633 13.3691-14.9219 14.7949-13.9844L14.209-12.5293C14.0137-12.0508 13.9844-11.6504 14.1113-11.2891L3.04688-0.898438C2.06055 0.0195312 1.98242 0.996094 2.8418 1.86523ZM10.752-15.957C13.1836-17.7344 16.4746-17.4316 18.7012-15.2051L21.1328-12.793C21.3672-12.5586 21.4062-12.373 21.3379-12.0312L21.0156-10.5469L22.5195-9.0625L23.5059-9.12109C23.7598-9.13086 23.8379-9.11133 24.0332-8.91602L24.6094-8.33984L22.168-5.89844L21.5918-6.47461C21.3965-6.66992 21.3672-6.74805 21.377-7.01172L21.4453-7.98828L19.9512-9.47266L18.4277-9.21875C18.1055-9.15039 17.959-9.17969 17.7148-9.41406L15.7129-11.416C15.459-11.6504 15.4297-11.8164 15.5859-12.1875L16.4648-14.2773C14.9023-15.7324 12.8711-16.3574 10.8398-15.7617C10.6836-15.7227 10.625-15.8496 10.752-15.957ZM5.27344 2.30469L4.10156 1.14258C3.63281 0.683594 3.74023 0.341797 4.14062-0.0195312L14.9512-10.1953L16.416-8.71094L6.42578 2.27539C6.07422 2.67578 5.74219 2.77344 5.27344 2.30469Z"/>
  </g>
  <text style="stroke:none;fill:black;font-family:-apple-system,&quot;SF Pro Display&quot;,&quot;SF Pro Text&quot;,Helvetica,sans-serif;font-weight:bold;" transform="matrix(1 0 0 1 1289 1953)">Exporting</text>
  <text style="stroke:none;fill:black;font-family:-apple-system,&quot;SF Pro Display&quot;,&quot;SF Pro Text&quot;,Helvetica,sans-serif;" transform="matrix(1 0 0 1 1289 1971)">Symbols should be outlined when exporting to ensure the</text>
  <text style="stroke:none;fill:black;font-family:-apple-system,&quot;SF Pro Display&quot;,&quot;SF Pro Text&quot;,Helvetica,sans-serif;" transform="matrix(1 0 0 1 1289 1989)">design is preserved when submitting to Xcode.</text>
  <text id="template-version" style="stroke:none;fill:black;font-family:-apple-system,&quot;SF Pro Display&quot;,&quot;SF Pro Text&quot;,Helvetica,sans-serif;text-anchor:end;" transform="matrix(1 0 0 1 3036 1933)">Template v.2.0</text>
  <text style="stroke:none;fill:black;font-family:-apple-system,&quot;SF Pro Display&quot;,&quot;SF Pro Text&quot;,Helvetica,sans-serif;text-anchor:end;" transform="matrix(1 0 0 1 3036 1951)">Requires Xcode 12 or greater</text>
  <text style="stroke:none;fill:black;font-family:-apple-system,&quot;SF Pro Display&quot;,&quot;SF Pro Text&quot;,Helvetica,sans-serif;text-anchor:end;" transform="matrix(1 0 0 1 3036 1969)">Generated from cloud.sun</text>
  <text style="stroke:none;fill:black;font-family:-apple-system,&quot;SF Pro Display&quot;,&quot;SF Pro Text&quot;,Helvetica,sans-serif;text-anchor:end;" transform="matrix(1 0 0 1 3036 1987)">Typeset at 100 points</text>
  <text style="stroke:none;fill:black;font-family:-apple-system,&quot;SF Pro Display&quot;,&quot;SF Pro Text&quot;,Helvetica,sans-serif;" transform="matrix(1 0 0 1 263 726)">Small</text>
  <text style="stroke:none;fill:black;font-family:-apple-system,&quot;SF Pro Display&quot;,&quot;SF Pro Text&quot;,Helvetica,sans-serif;" transform="matrix(1 0 0 1 263 1156)">Medium</text>
  <text style="stroke:none;fill:black;font-family:-apple-system,&quot;SF Pro Display&quot;,&quot;SF Pro Text&quot;,Helvetica,sans-serif;" transform="matrix(1 0 0 1 263 1586)">Large</text>
 </g>
 <g id="Guides">
  <g id="H-reference" style="fill:#27AAE1;stroke:none;" transform="matrix(1 0 0 1 339 696)">
   <path d="M0.976562 0L3.66211 0L12.9883-24.4629L45.752-24.4629L55.127 0L57.7637 0L30.6152-70.459L28.125-70.459ZM29.3457-67.1387L29.4434-67.1387L44.873-26.709L13.8672-26.709Z"/>
  </g>
  <line id="Baseline-S" style="fill:none;stroke:#27AAE1;opacity:1;stroke-width:0.5;" x1="263" x2="3036" y1="696" y2="696"/>
  <line id="Capline-S" style="fill:none;stroke:#27AAE1;opacity:1;stroke-width:0.5;" x1="263" x2="3036" y1="625.541" y2="625.541"/>
  <g id="H-reference" style="fill:#27AAE1;stroke:none;" transform="matrix(1 0 0 1 339 1126)">
   <path d="M0.976562 0L3.66211 0L12.9883-24.4629L45.752-24.4629L55.127 0L57.7637 0L30.6152-70.459L28.125-70.459ZM29.3457-67.1387L29.4434-67.1387L44.873-26.709L13.8672-26.709Z"/>
  </g>
  <line id="Baseline-M" style="fill:none;stroke:#27AAE1;opacity:1;stroke-width:0.5;" x1="263" x2="3036" y1="1126" y2="1126"/>
  <line id="Capline-M" style="fill:none;stroke:#27AAE1;opacity:1;stroke-width:0.5;" x1="263" x2="3036" y1="1055.54" y2="1055.54"/>
  <g id="H-reference" style="fill:#27AAE1;stroke:none;" transform="matrix(1 0 0 1 339 1556)">
   <path d="M0.976562 0L3.66211 0L12.9883-24.4629L45.752-24.4629L55.127 0L57.7637 0L30.6152-70.459L28.125-70.459ZM29.3457-67.1387L29.4434-67.1387L44.873-26.709L13.8672-26.709Z"/>
  </g>
  <line id="Baseline-L" style="fill:none;stroke:#27AAE1;opacity:1;stroke-width:0.5;" x1="263" x2="3036" y1="1556" y2="1556"/>
  <line id="Capline-L" style="fill:none;stroke:#27AAE1;opacity:1;stroke-width:0.5;" x1="263" x2="3036" y1="1485.54" y2="1485.54"/>
  <line id="left-margin" style="fill:none;stroke:#00AEEF;stroke-width:0.5;opacity:1.0;" x1="1382.24" x2="1382.24" y1="1030.79" y2="1150.12"/>
  <line id="right-margin" style="fill:none;stroke:#FF3B30;stroke-width:0.5;opacity:1.0;" x1="1517.45" x2="1517.45" y1="1030.79" y2="1150.12"/>
 </g>
 <g id="Symbols">
  <g id="Black-L" transform="matrix(1 0 0 1 2841.6 1556)">
   <path d="M138.818-99.2188C142.92-99.2188 146.289-102.734 146.289-106.787L146.289-117.627C146.289-121.777 142.92-125.195 138.818-125.195C134.717-125.195 131.396-121.777 131.396-117.627L131.396-106.787C131.396-102.734 134.717-99.2188 138.818-99.2188ZM98.1934-86.9141C101.172-83.9355 105.957-83.9355 108.838-86.8164C111.719-89.6973 111.621-94.3848 108.74-97.3633L101.123-105.127C98.291-108.105 93.3594-108.008 90.4785-105.127C87.5977-102.246 87.7441-97.5098 90.625-94.6289ZM168.896-86.7188C171.729-83.8379 176.611-83.9355 179.492-86.8652L187.158-94.4824C190.088-97.3633 190.088-102.197 187.207-105.078C184.326-107.959 179.59-107.91 176.66-104.98L168.945-97.3633C166.016-94.4824 166.016-89.5996 168.896-86.7188ZM42.2852 14.4531L111.621 14.4531C131.934 14.4531 147.705-1.12305 147.705-21.0938C147.705-22.6074 147.656-24.0723 147.461-25.5371C161.426-29.1016 171.68-41.4551 171.68-56.7383C171.68-75 157.129-89.5508 139.014-89.5508C123.389-89.5508 110.596-79.1016 107.031-64.7461C99.0723-73.9746 87.7441-78.8574 74.0234-78.8574C51.9043-78.8574 33.5938-63.1348 30.0293-41.2109C18.5547-37.4512 11.2793-27.2949 11.2793-14.7949C11.2793 2.19727 24.3164 14.4531 42.2852 14.4531ZM138.965-74.2676C148.486-74.2676 156.201-66.5527 156.201-56.9824C156.201-48.584 150.244-41.6504 142.432-40.1855C137.842-47.6562 130.518-53.125 121.729-55.5664C121.68-56.0547 121.631-56.543 121.631-56.9824C121.631-66.5527 129.346-74.2676 138.965-74.2676ZM188.721-49.4141L199.561-49.4141C203.662-49.4141 207.08-52.7344 207.08-56.7871C207.08-60.8887 203.662-64.3066 199.561-64.3066L188.721-64.3066C184.668-64.3066 181.152-60.8887 181.152-56.7871C181.152-52.7344 184.668-49.4141 188.721-49.4141ZM42.7246-2.88086C33.3008-2.88086 28.6133-7.71484 28.6133-14.5508C28.6133-20.6055 32.4219-25.2441 41.0156-27.4414C44.7266-28.418 45.7031-30.0781 46.2891-33.8379C48.9746-52.002 60.0098-61.6211 74.0234-61.6211C84.5215-61.6211 93.3105-55.6152 99.3652-44.3359C101.025-41.2598 102.734-40.1855 106.494-40.1855C122.998-40.1855 130.42-31.6406 130.42-20.8496C130.42-10.6934 122.754-2.88086 111.133-2.88086ZM176.611-8.54492C179.541-5.61523 184.277-5.61523 187.158-8.49609C190.039-11.377 189.941-16.0645 187.061-19.043L179.443-26.8066C176.611-29.7363 171.68-29.6875 168.799-26.8066C165.918-23.9258 166.064-19.1406 168.945-16.2598Z"/>
  </g>
  <g id="Heavy-L" transform="matrix(1 0 0 1 2546.04 1556)">
   <path d="M136.426-97.3145C140.137-97.3145 143.164-100.439 143.164-104.15L143.164-115.869C143.164-119.629 140.137-122.705 136.426-122.705C132.764-122.705 129.736-119.629 129.736-115.869L129.736-104.15C129.736-100.439 132.764-97.3145 136.426-97.3145ZM97.0703-85.0586C99.7559-82.373 104.102-82.373 106.689-84.9609C109.229-87.5488 109.18-91.7969 106.592-94.4824L98.291-102.881C95.752-105.566 91.3086-105.518 88.7207-102.881C86.1328-100.293 86.1816-95.9961 88.8184-93.3594ZM166.26-84.9121C168.848-82.3242 173.242-82.373 175.879-85.0098L184.18-93.3105C186.816-95.8984 186.816-100.244 184.229-102.881C181.641-105.469 177.344-105.42 174.707-102.783L166.309-94.4824C163.672-91.8945 163.721-87.5 166.26-84.9121ZM41.1133 13.8184L110.254 13.8184C129.98 13.8184 145.361-1.2207 145.361-20.6055C145.361-21.875 145.312-23.0957 145.166-24.3164C158.838-27.9297 168.799-40.1855 168.799-55.127C168.799-73.0957 154.443-87.4512 136.572-87.4512C121.289-87.4512 108.691-77.1973 105.176-63.1836C97.3145-72.2656 86.1328-77.2949 72.8516-77.2949C51.0254-77.2949 33.0078-61.4258 29.7852-39.8438C18.5547-36.2305 11.2793-26.3672 11.2793-14.0625C11.2793 2.09961 23.6816 13.8184 41.1133 13.8184ZM136.523-73.877C146.875-73.877 155.078-65.6738 155.078-55.3223C155.078-46.582 149.17-39.3066 141.162-37.3535C136.475-45.9473 128.174-52.1484 117.969-54.3457C117.92-54.6875 117.92-54.9805 117.92-55.3223C117.92-65.6738 126.172-73.877 136.523-73.877ZM41.4062-1.41602C31.543-1.41602 26.5625-6.68945 26.5625-13.8672C26.5625-20.2148 30.5176-25.1953 39.3066-27.4902C42.7734-28.418 43.75-29.9316 44.2383-33.4961C46.6309-51.6113 58.3008-62.0605 72.8516-62.0605C83.8867-62.0605 92.9199-55.7617 98.9258-44.3359C100.488-41.4551 102.148-40.3809 105.713-40.3809C122.119-40.3809 130.078-31.4941 130.078-20.3613C130.078-9.7168 121.875-1.41602 109.912-1.41602ZM185.303-48.4863L197.07-48.4863C200.781-48.4863 203.857-51.4648 203.857-55.1758C203.857-58.8867 200.781-61.9629 197.07-61.9629L185.303-61.9629C181.641-61.9629 178.516-58.8867 178.516-55.1758C178.516-51.4648 181.641-48.4863 185.303-48.4863ZM174.658-7.4707C177.295-4.83398 181.592-4.83398 184.18-7.42188C186.768-10.0098 186.719-14.3066 184.082-16.9922L175.83-25.3418C173.242-27.9785 168.848-27.9297 166.211-25.3418C163.623-22.7539 163.721-18.4082 166.309-15.8203Z"/>
  </g>
  <g id="Bold-L" transform="matrix(1 0 0 1 2250.62 1556)">
   <path d="M133.789-95.166C137.061-95.166 139.746-97.9492 139.746-101.172L139.746-113.916C139.746-117.236 137.061-119.922 133.789-119.922C130.518-119.922 127.832-117.236 127.832-113.916L127.832-101.172C127.832-97.9492 130.518-95.166 133.789-95.166ZM95.8008-82.959C98.1445-80.5664 102.002-80.6152 104.248-82.8613C106.494-85.1562 106.494-88.916 104.199-91.2598L95.166-100.391C92.8711-102.734 89.0137-102.686 86.7188-100.391C84.4238-98.0957 84.4727-94.2871 86.7676-91.9922ZM163.379-82.8613C165.625-80.5664 169.482-80.5664 171.826-82.9102L180.859-91.9434C183.203-94.2383 183.154-98.0469 180.859-100.342C178.564-102.637 174.805-102.637 172.51-100.293L163.379-91.2598C161.084-88.9648 161.133-85.1562 163.379-82.8613ZM39.7949 13.1836L108.691 13.1836C127.832 13.1836 142.676-1.36719 142.676-20.0684C142.676-20.9961 142.676-21.9238 142.578-22.8516C155.908-26.6602 165.576-38.7695 165.576-53.3203C165.576-70.9961 151.465-85.1074 133.838-85.1074C118.945-85.1074 106.592-75.1465 103.076-61.4258C95.3125-70.4102 84.4238-75.4883 71.4844-75.4883C50.0977-75.4883 32.373-59.5703 29.541-38.2812C18.6035-34.8145 11.2793-25.293 11.2793-13.3301C11.2793 2.00195 22.9492 13.1836 39.7949 13.1836ZM133.838-73.4863C145.02-73.4863 153.857-64.6484 153.857-53.418C153.857-44.3359 147.9-36.6211 139.648-34.1309C135.01-43.9941 125.537-51.0742 113.77-52.832C113.77-53.0273 113.77-53.2227 113.77-53.418C113.77-64.6484 122.607-73.4863 133.838-73.4863ZM39.9414 0.244141C29.5898 0.244141 24.2188-5.51758 24.2188-13.0859C24.2188-19.7754 28.3691-25.1465 37.3535-27.5391C40.5762-28.3691 41.5527-29.834 41.9434-33.0566C43.9941-51.123 56.3477-62.5977 71.4844-62.5977C83.2031-62.5977 92.5293-55.9082 98.4863-44.3848C99.9023-41.6504 101.465-40.6738 104.785-40.6738C121.143-40.6738 129.736-31.3477 129.736-19.7754C129.736-8.59375 120.898 0.244141 108.545 0.244141ZM181.494-47.4121L194.287-47.4121C197.559-47.4121 200.244-50.0488 200.244-53.3203C200.244-56.5918 197.559-59.2773 194.287-59.2773L181.494-59.2773C178.271-59.2773 175.537-56.5918 175.537-53.3203C175.537-50.0488 178.271-47.4121 181.494-47.4121ZM172.461-6.29883C174.805-3.95508 178.564-3.95508 180.859-6.25C183.154-8.54492 183.105-12.3047 180.811-14.6484L171.729-23.7305C169.482-26.0254 165.625-26.0254 163.33-23.7305C161.035-21.4355 161.084-17.627 163.379-15.332Z"/>
  </g>
  <g id="Semibold-L" transform="matrix(1 0 0 1 1954.81 1556)">
   <path d="M131.934-93.7012C134.912-93.7012 137.354-96.1914 137.354-99.1211L137.354-112.598C137.354-115.576 134.912-117.969 131.934-117.969C129.004-117.969 126.562-115.576 126.562-112.598L126.562-99.1211C126.562-96.1914 129.004-93.7012 131.934-93.7012ZM94.9219-81.4941C97.0215-79.3457 100.537-79.3945 102.588-81.4453C104.59-83.5449 104.59-86.9141 102.539-89.0625L92.9688-98.6328C90.8691-100.781 87.4512-100.732 85.3516-98.6328C83.3008-96.582 83.3008-93.1641 85.4004-91.0645ZM161.377-81.4453C163.379-79.3457 166.895-79.3457 169.043-81.4941L178.564-91.0156C180.664-93.1152 180.615-96.582 178.564-98.6328C176.514-100.732 173.096-100.732 170.996-98.584L161.377-89.0625C159.277-86.9629 159.326-83.4961 161.377-81.4453ZM38.916 12.7441L107.666 12.7441C126.318 12.7441 140.869-1.46484 140.869-19.6777C140.869-20.4102 140.82-21.1426 140.771-21.875C153.906-25.7324 163.379-37.7441 163.379-52.0508C163.379-69.5312 149.414-83.4961 131.982-83.4961C117.334-83.4961 105.176-73.6816 101.611-60.2539C93.9453-69.1406 83.2031-74.2676 70.5078-74.2676C49.4141-74.2676 31.8848-58.252 29.3945-37.207C18.6035-33.8867 11.2793-24.6094 11.2793-12.793C11.2793 1.95312 22.4609 12.7441 38.916 12.7441ZM131.982-73.2422C143.75-73.2422 153.027-63.916 153.027-52.0996C153.027-42.7734 146.973-34.7168 138.477-31.8848C134.033-42.6758 123.779-50.293 110.889-51.709C110.889-51.8066 110.889-51.9531 110.889-52.0996C110.889-63.916 120.166-73.2422 131.982-73.2422ZM38.916 1.36719C28.2715 1.36719 22.6074-4.6875 22.6074-12.5977C22.6074-19.4336 26.8555-25.0977 36.0352-27.5879C39.0625-28.3691 40.0391-29.7363 40.3809-32.8125C42.1875-50.7812 55.0293-62.9395 70.5078-62.9395C82.7148-62.9395 92.2363-56.0059 98.1445-44.3848C99.5117-41.748 101.025-40.8203 104.199-40.8203C120.459-40.8203 129.492-31.25 129.492-19.4336C129.492-7.8125 120.215 1.36719 107.617 1.36719ZM178.906-46.7285L192.383-46.7285C195.312-46.7285 197.754-49.1211 197.754-52.0508C197.754-55.0293 195.312-57.4707 192.383-57.4707L178.906-57.4707C175.977-57.4707 173.486-55.0293 173.486-52.0508C173.486-49.1211 175.977-46.7285 178.906-46.7285ZM170.947-5.46875C173.096-3.32031 176.465-3.36914 178.564-5.46875C180.615-7.51953 180.615-10.9375 178.516-13.0371L168.945-22.6074C166.895-24.6582 163.428-24.707 161.328-22.6074C159.277-20.5566 159.326-17.0898 161.377-14.9902Z"/>
  </g>
  <g id="Medium-L" transform="matrix(1 0 0 1 1658.79 1556)">
   <path d="M130.566-92.5781C133.301-92.5781 135.547-94.873 135.547-97.5586L135.547-111.572C135.547-114.307 133.301-116.553 130.566-116.553C127.832-116.553 125.586-114.307 125.586-111.572L125.586-97.5586C125.586-94.873 127.832-92.5781 130.566-92.5781ZM94.2383-80.4199C96.1914-78.418 99.4141-78.4668 101.318-80.3711C103.174-82.2754 103.174-85.4004 101.27-87.3535L91.3086-97.3633C89.4043-99.2676 86.2305-99.2676 84.3262-97.3633C82.4219-95.4102 82.4219-92.2852 84.3262-90.332ZM159.863-80.3711C161.719-78.4668 164.941-78.418 166.895-80.3711L176.807-90.2832C178.76-92.2363 178.711-95.4102 176.807-97.3145C174.902-99.2676 171.777-99.2676 169.824-97.3145L159.863-87.3535C157.91-85.4492 157.959-82.2754 159.863-80.3711ZM38.2324 12.3535L106.836 12.3535C125.195 12.3535 139.453-1.51367 139.453-19.3848C139.453-19.9707 139.453-20.5078 139.404-21.0449C152.393-25.0488 161.67-37.0117 161.67-51.0742C161.67-68.4082 147.852-82.2754 130.566-82.2754C116.113-82.2754 104.053-72.6074 100.488-59.3262C92.9199-68.1641 82.2754-73.3398 69.8242-73.3398C48.9258-73.3398 31.543-57.2754 29.248-36.377C18.6035-33.1543 11.2793-24.0234 11.2793-12.3535C11.2793 1.9043 22.0703 12.3535 38.2324 12.3535ZM130.566-73.0469C142.773-73.0469 152.393-63.4277 152.393-51.123C152.393-41.5039 146.289-33.252 137.598-30.1758C133.35-41.6504 122.461-49.707 108.74-50.7812C108.74-50.9277 108.74-51.0254 108.74-51.123C108.74-63.4277 118.311-73.0469 130.566-73.0469ZM38.1836 2.24609C27.2461 2.24609 21.3867-4.05273 21.3867-12.1582C21.3867-19.2383 25.7324-25.0977 35.0098-27.5879C37.9395-28.3691 38.916-29.6387 39.209-32.6172C40.8203-50.5371 54.0039-63.1836 69.8242-63.1836C82.373-63.1836 91.9922-56.1035 97.9004-44.3848C99.2188-41.8457 100.684-40.9668 103.711-40.9668C119.922-40.9668 129.346-31.1523 129.346-19.1406C129.346-7.27539 119.678 2.24609 106.885 2.24609ZM176.904-46.1426L190.918-46.1426C193.652-46.1426 195.85-48.3887 195.85-51.123C195.898-53.8574 193.652-56.0547 190.918-56.0547L176.904-56.0547C174.219-56.0547 171.924-53.8574 171.924-51.123C171.924-48.3887 174.219-46.1426 176.904-46.1426ZM169.824-4.83398C171.777-2.88086 174.902-2.92969 176.807-4.83398C178.711-6.73828 178.711-9.91211 176.758-11.8164L166.846-21.7773C164.941-23.6328 161.768-23.6816 159.814-21.7773C157.91-19.873 157.959-16.6504 159.863-14.7461Z"/>
  </g>
  <g id="Regular-L" transform="matrix(1 0 0 1 1362.95 1556)">
   <path d="M128.76-91.1133C131.201-91.1133 133.203-93.1641 133.203-95.5078L133.203-110.205C133.203-112.646 131.201-114.648 128.76-114.648C126.318-114.648 124.316-112.646 124.316-110.205L124.316-95.5078C124.316-93.1641 126.318-91.1133 128.76-91.1133ZM93.3594-78.9551C95.1172-77.1973 97.998-77.2461 99.6582-78.9551C101.27-80.6641 101.318-83.4473 99.6582-85.1562L89.1602-95.6055C87.4512-97.3633 84.668-97.3145 82.959-95.6055C81.2988-93.9453 81.25-91.1133 82.959-89.4043ZM157.861-78.9551C159.521-77.2461 162.402-77.1973 164.16-78.9551L174.512-89.4043C176.27-91.1133 176.221-93.9453 174.512-95.6055C172.852-97.3145 170.068-97.3633 168.359-95.6055L157.861-85.1562C156.152-83.4473 156.201-80.6641 157.861-78.9551ZM37.3535 11.9141L105.811 11.9141C123.73 11.9141 137.646-1.61133 137.646-18.9941C137.646-19.3359 137.646-19.6777 137.646-20.0195C150.391-24.1211 159.473-36.0352 159.473-49.8535C159.473-66.9922 145.801-80.7129 128.711-80.7129C114.502-80.7129 102.637-71.1914 99.0723-58.1543C91.5527-66.8945 81.1035-72.1191 68.8965-72.1191C48.291-72.1191 31.1035-56.0059 29.1016-35.3516C18.6523-32.1777 11.2793-23.3398 11.2793-11.8652C11.2793 1.80664 21.582 11.9141 37.3535 11.9141ZM128.711-72.7539C141.553-72.7539 151.562-62.6953 151.562-49.8535C151.562-39.8926 145.361-31.2988 136.328-27.8809C132.52-40.332 120.752-48.9746 105.908-49.5605C105.908-49.6582 105.908-49.7559 105.908-49.8535C105.908-62.6953 115.918-72.7539 128.711-72.7539ZM37.1582 3.36914C25.8789 3.36914 19.8242-3.27148 19.8242-11.6699C19.8242-18.8965 24.2676-25.0488 33.6914-27.6367C36.4258-28.3691 37.4023-29.541 37.6465-32.3242C39.0625-50.2441 52.6855-63.5254 68.8965-63.5254C81.8848-63.5254 91.6992-56.2012 97.6074-44.4336C98.8281-41.9922 100.195-41.1621 103.076-41.1621C119.287-41.1621 129.102-31.0547 129.102-18.75C129.102-6.49414 119.043 3.36914 105.957 3.36914ZM174.316-45.459L189.014-45.459C191.406-45.459 193.359-47.4121 193.408-49.8535C193.457-52.2949 191.406-54.248 189.014-54.248L174.316-54.248C171.924-54.248 169.873-52.2949 169.873-49.8535C169.873-47.4121 171.924-45.459 174.316-45.459ZM168.359-4.00391C170.068-2.24609 172.852-2.34375 174.512-4.05273C176.221-5.76172 176.27-8.54492 174.512-10.2539L164.062-20.6543C162.354-22.3145 159.57-22.3633 157.861-20.6543C156.152-18.9453 156.152-16.1133 157.861-14.4043Z"/>
  </g>
  <g id="Light-L" transform="matrix(1 0 0 1 1066.71 1556)">
   <path d="M128.125-91.9434C129.98-91.9434 131.494-93.5059 131.494-95.2637L131.494-111.426C131.494-113.232 129.98-114.746 128.125-114.746C126.318-114.746 124.805-113.232 124.805-111.426L124.805-95.2637C124.805-93.5059 126.318-91.9434 128.125-91.9434ZM94.3359-79.7852C95.6055-78.5156 97.8027-78.5156 99.0234-79.7852C100.293-81.0547 100.293-83.2031 99.0234-84.4727L87.5488-95.9473C86.2305-97.2656 84.1797-97.2168 82.9102-95.9473C81.5918-94.6777 81.543-92.5781 82.9102-91.2598ZM157.275-79.7852C158.496-78.5156 160.693-78.5156 161.963-79.7852L173.389-91.2598C174.707-92.5781 174.658-94.6777 173.389-95.9473C172.119-97.2168 170.068-97.2656 168.75-95.9473L157.275-84.4727C156.006-83.2031 156.006-81.0547 157.275-79.7852ZM36.5234 10.8398L105.322 10.8398C122.852 10.8398 136.475-2.39258 136.475-19.2871C136.475-19.873 136.475-20.459 136.426-21.0449C149.219-25.1465 158.301-37.0117 158.301-50.6836C158.301-67.5293 144.873-80.957 128.076-80.957C113.672-80.957 101.709-70.9961 98.6328-57.4707C91.2598-66.4551 80.9082-71.875 68.4082-71.875C48.1445-71.875 31.3477-55.7129 29.4434-35.1074C18.9941-32.1777 11.2793-23.6328 11.2793-12.1094C11.2793 0.830078 21.0449 10.8398 36.5234 10.8398ZM128.076-74.8535C141.602-74.8535 152.148-64.209 152.148-50.6836C152.148-40.0879 145.312-30.7129 135.449-27.0996C131.885-39.9414 119.629-48.877 104.248-49.0234L104.15-49.1211C104.053-49.6582 104.053-50.1465 104.053-50.6836C104.053-64.209 114.6-74.8535 128.076-74.8535ZM36.4258 4.3457C24.3652 4.3457 17.7246-2.92969 17.7246-12.0117C17.7246-20.1172 22.998-26.5137 32.5684-29.248C34.9121-29.8828 35.6934-30.8594 35.8398-33.0566C37.207-51.2695 51.6113-65.3809 68.4082-65.3809C82.4707-65.3809 92.7246-57.2266 98.6328-45.4102C99.6582-43.3594 100.83-42.6758 103.271-42.6758C119.336-42.6758 130.029-32.1289 130.029-19.043C130.029-6.15234 119.287 4.3457 105.371 4.3457ZM172.559-47.3633L188.77-47.3633C190.576-47.3633 192.041-48.877 192.09-50.6836C192.139-52.4902 190.576-54.0039 188.77-54.0039L172.559-54.0039C170.801-54.0039 169.287-52.4902 169.287-50.6836C169.287-48.877 170.801-47.3633 172.559-47.3633ZM168.75-5.37109C170.068-4.00391 172.119-4.10156 173.389-5.37109C174.658-6.64062 174.707-8.74023 173.389-10.0586L161.914-21.4844C160.645-22.7539 158.545-22.7539 157.275-21.4844C156.006-20.2148 156.006-18.0664 157.275-16.7969Z"/>
  </g>
  <g id="Thin-L" transform="matrix(1 0 0 1 770.607 1556)">
   <path d="M127.344-93.0176C128.369-93.0176 129.248-93.9453 129.248-94.873L129.248-113.037C129.248-114.014 128.369-114.844 127.344-114.844C126.318-114.844 125.439-114.014 125.439-113.037L125.439-94.873C125.439-93.9453 126.318-93.0176 127.344-93.0176ZM156.445-80.9082C157.178-80.1758 158.398-80.1758 159.082-80.9082L171.924-93.7012C172.705-94.5312 172.607-95.6543 171.924-96.3379C171.191-97.0703 170.068-97.168 169.287-96.3379L156.445-83.5449C155.762-82.8125 155.762-81.5918 156.445-80.9082ZM95.6055-80.9082C96.2891-80.1758 97.5098-80.1758 98.2422-80.9082C98.9258-81.5918 98.9258-82.8125 98.2422-83.5449L85.4004-96.3379C84.6191-97.168 83.4961-97.0703 82.7637-96.3379C82.0801-95.6543 81.9824-94.5312 82.7637-93.7012ZM35.4492 9.32617L104.639 9.32617C121.68 9.32617 134.961-3.4668 134.961-19.6289C134.961-20.5566 134.912-21.4844 134.814-22.3633C147.656-26.5137 156.738-38.3789 156.738-51.8066C156.738-68.2129 143.604-81.3477 127.246-81.3477C112.5-81.3477 100.391-70.6543 98.1445-56.4453C90.8691-65.7715 80.7129-71.5332 67.7246-71.5332C47.998-71.5332 31.6895-55.3711 29.8828-34.8633C19.4824-32.1289 11.2793-24.0723 11.2793-12.5C11.2793-0.488281 20.3613 9.32617 35.4492 9.32617ZM127.246-77.5879C141.65-77.5879 152.979-66.2109 152.979-51.8066C152.979-40.2832 145.312-29.9316 134.18-26.123C131.152-39.0625 118.896-48.1934 103.418-48.2422C102.832-49.3652 102.197-50.4395 101.562-51.5137C101.562-51.6113 101.562-51.709 101.562-51.8066C101.562-66.2109 112.891-77.5879 127.246-77.5879ZM35.4004 5.66406C22.3145 5.66406 14.9902-2.49023 14.9902-12.4512C14.9902-21.6797 21.2891-28.4668 31.1035-31.3965C32.8613-31.9336 33.3984-32.5684 33.4961-34.0332C34.7656-52.6855 50.1465-67.8223 67.7246-67.8223C83.252-67.8223 94.043-58.5449 100-46.7285C100.781-45.166 101.66-44.6289 103.516-44.6289C119.385-44.6289 131.25-33.5449 131.25-19.4824C131.25-5.66406 119.58 5.66406 104.639 5.66406ZM170.264-49.9512L188.428-49.9512C189.502-49.9512 190.234-50.7812 190.332-51.8066C190.381-52.7832 189.502-53.6133 188.428-53.6133L170.264-53.6133C169.287-53.6133 168.457-52.7832 168.457-51.8066C168.457-50.7812 169.287-49.9512 170.264-49.9512ZM169.287-7.12891C170.068-6.34766 171.191-6.44531 171.924-7.12891C172.607-7.86133 172.705-8.98438 171.924-9.76562L159.082-22.6074C158.35-23.291 157.178-23.291 156.445-22.6074C155.762-21.875 155.762-20.6543 156.445-19.9707Z"/>
  </g>
  <g id="Ultralight-L" transform="matrix(1 0 0 1 474.213 1556)">
   <path d="M126.953-93.6035C127.539-93.6035 128.125-94.1895 128.125-94.6777L128.125-113.818C128.125-114.453 127.539-114.893 126.953-114.893C126.318-114.893 125.781-114.453 125.781-113.818L125.781-94.6777C125.781-94.1895 126.318-93.6035 126.953-93.6035ZM96.2402-81.4453C96.6797-81.0547 97.4121-81.0547 97.8027-81.4453C98.2422-81.8848 98.2422-82.6172 97.8027-83.0566L84.2773-96.582C83.7891-97.0703 83.1543-96.9727 82.7148-96.582C82.2754-96.1426 82.1777-95.5078 82.7148-94.9707ZM156.055-81.4453C156.494-81.0547 157.178-81.0547 157.617-81.4453L171.143-94.9707C171.68-95.5078 171.582-96.1426 171.143-96.582C170.752-96.9727 170.068-97.0703 169.58-96.582L156.055-83.0566C155.615-82.6172 155.615-81.8848 156.055-81.4453ZM34.8633 8.59375L104.297 8.59375C121.045 8.59375 134.18-4.00391 134.18-19.8242C134.18-20.9473 134.082-22.0215 133.984-23.0469C146.875-27.1973 155.957-39.0625 155.957-52.3438C155.957-68.5547 142.969-81.543 126.855-81.543C111.914-81.543 99.6582-70.4102 97.9492-55.8594C90.7227-65.3809 80.6152-71.3867 67.3828-71.3867C47.9004-71.3867 31.8359-55.2246 30.127-34.7168C19.7266-32.1289 11.2793-24.2676 11.2793-12.6953C11.2793-1.17188 20.0195 8.59375 34.8633 8.59375ZM126.855-78.9551C141.699-78.9551 153.369-67.1875 153.369-52.3438C153.369-40.3809 145.264-29.541 133.545-25.5859C130.762-38.5742 118.506-47.8027 102.979-47.8516C102.148-49.4629 101.27-51.0254 100.293-52.4902C100.293-67.1875 111.963-78.9551 126.855-78.9551ZM34.9121 6.29883C21.2891 6.29883 13.5742-2.24609 13.5742-12.6953C13.5742-22.4609 20.4102-29.4922 30.3711-32.5195C31.8359-32.959 32.2266-33.4473 32.3242-34.5703C33.4961-53.3691 49.4141-69.0918 67.3828-69.0918C81.2988-69.0918 91.4062-61.9141 97.7539-52.4414L97.7539-52.3438C97.7539-52.3438 97.7539-52.2461 97.7539-52.1973L97.9004-52.1973C98.9258-50.6836 99.8535-49.0723 100.684-47.4121C101.367-46.0938 102.1-45.6543 103.662-45.6543C119.434-45.6543 131.885-34.2773 131.885-19.6777C131.885-5.37109 119.727 6.29883 104.297 6.29883ZM169.092-51.2695L188.232-51.2695C188.965-51.2695 189.355-51.7578 189.404-52.3438C189.502-52.9785 188.965-53.418 188.232-53.418L169.092-53.418C168.506-53.418 168.018-52.9785 168.018-52.3438C168.018-51.7578 168.506-51.2695 169.092-51.2695ZM169.58-8.05664C170.068-7.51953 170.752-7.61719 171.143-8.05664C171.582-8.44727 171.68-9.13086 171.143-9.61914L157.617-23.1445C157.227-23.584 156.445-23.584 156.055-23.1445C155.615-22.7539 155.615-22.0215 156.055-21.582Z"/>
  </g>
  <g id="Black-M" transform="matrix(1 0 0 1 2860.94 1126)">
   <path d="M110.498-87.8418C113.867-87.8418 116.602-90.7227 116.602-94.1406L116.602-102.051C116.602-105.518 113.867-108.35 110.498-108.35C107.08-108.35 104.346-105.518 104.346-102.051L104.346-94.1406C104.346-90.7227 107.08-87.8418 110.498-87.8418ZM78.1738-78.2715C80.6152-75.8301 84.5703-75.7324 86.9629-78.125C89.3555-80.5176 89.209-84.375 86.8164-86.9141L81.2988-92.627C79.0039-95.0684 74.8535-94.9707 72.4609-92.627C70.1172-90.2344 70.2148-86.2793 72.6074-83.8867ZM134.082-78.0762C136.426-75.6836 140.43-75.8301 142.822-78.1738L148.486-83.7891C150.928-86.1816 150.928-90.1855 148.535-92.5293C146.143-94.9219 142.188-94.873 139.746-92.4316L134.131-86.9141C131.689-84.5215 131.689-80.4688 134.082-78.0762ZM33.8867 3.4668L88.0859 3.4668C104.395 3.4668 117.09-9.0332 117.09-25.0977C117.09-26.7578 116.943-28.3691 116.699-29.8828C127.979-32.5195 136.328-42.2852 136.328-54.541C136.328-68.8965 124.902-80.3223 110.645-80.3223C97.998-80.3223 87.6953-71.582 85.3027-59.8145C79.0527-67.2363 70.0195-71.0938 58.7402-71.0938C41.3086-71.0938 26.9531-58.9844 23.7305-41.6504C14.5508-38.623 8.74023-30.5176 8.74023-20.459C8.74023-6.64062 19.4336 3.4668 33.8867 3.4668ZM110.596-67.041C117.334-67.041 122.852-61.5234 122.852-54.7852C122.852-48.3398 117.871-43.0176 111.572-42.5293C108.301-46.9727 103.809-50.3906 98.5352-52.2949C98.3887-53.1738 98.291-54.0527 98.291-54.7852C98.291-61.5234 103.809-67.041 110.596-67.041ZM149.951-48.5352L157.861-48.5352C161.328-48.5352 164.16-51.2207 164.16-54.5898C164.16-58.0078 161.328-60.791 157.861-60.791L149.951-60.791C146.533-60.791 143.652-58.0078 143.652-54.5898C143.652-51.2207 146.533-48.5352 149.951-48.5352ZM34.4727-11.6211C27.3438-11.6211 23.877-15.1855 23.877-20.3125C23.877-25.0488 27.002-28.3691 33.5449-30.0293C36.4746-30.7617 37.1582-32.0801 37.6465-35.0098C40.1367-49.3652 48.2422-56.0547 58.7402-56.0547C66.6504-56.0547 73.3887-51.3672 78.125-42.7734C79.4434-40.4297 80.7617-39.5508 83.7402-39.5508C96.5332-39.5508 101.953-33.2031 101.953-24.9023C101.953-17.334 96.4844-11.6211 87.5-11.6211ZM139.697-16.748C142.139-14.3066 146.094-14.209 148.486-16.6016C150.879-18.9941 150.732-22.8516 148.34-25.3906L142.822-31.1035C140.527-33.5449 136.377-33.4961 133.984-31.1035C131.592-28.7109 131.738-24.7559 134.131-22.3633Z"/>
  </g>
  <g id="Heavy-M" transform="matrix(1 0 0 1 2565.38 1126)">
   <path d="M108.008-85.5469C111.133-85.5469 113.672-88.1836 113.672-91.3086L113.672-99.8535C113.672-103.027 111.133-105.615 108.008-105.615C104.932-105.615 102.393-103.027 102.393-99.8535L102.393-91.3086C102.393-88.1836 104.932-85.5469 108.008-85.5469ZM76.6602-75.9766C78.9062-73.7305 82.5684-73.7305 84.7168-75.8789C86.9141-78.0762 86.8164-81.6406 84.6191-83.9355L78.6621-90.0879C76.5137-92.334 72.7539-92.2852 70.5566-90.0879C68.3594-87.8906 68.457-84.2773 70.6543-82.0801ZM131.348-75.8301C133.545-73.6816 137.207-73.7305 139.404-75.9277L145.508-81.9824C147.754-84.1797 147.754-87.8418 145.557-90.0391C143.359-92.2363 139.746-92.1875 137.5-89.9414L131.396-83.9355C129.199-81.7383 129.199-78.0273 131.348-75.8301ZM32.8125 3.125L86.7188 3.125C102.49 3.125 114.795-8.98438 114.795-24.5117C114.795-25.7812 114.697-27.0508 114.551-28.3203C125.439-31.0547 133.447-40.6738 133.447-52.5391C133.447-66.6992 122.217-77.9297 108.154-77.9297C95.9473-77.9297 85.8887-69.6289 83.3496-58.3008C77.1484-65.5273 68.3105-69.3848 57.5684-69.3848C40.3809-69.3848 26.2207-57.2266 23.3887-40.1855C14.4531-37.2559 8.74023-29.3945 8.74023-19.6289C8.74023-6.44531 18.8477 3.125 32.8125 3.125ZM108.105-66.1133C115.527-66.1133 121.484-60.1562 121.484-52.7344C121.484-46.1426 116.748-40.6738 110.498-39.5996C106.982-45.2148 101.465-49.3164 94.8242-51.2207C94.7266-51.7578 94.6777-52.2949 94.6777-52.7344C94.6777-60.1562 100.684-66.1133 108.105-66.1133ZM146.631-47.0215L155.225-47.0215C158.35-47.0215 160.938-49.5117 160.938-52.5879C160.938-55.7129 158.35-58.3008 155.225-58.3008L146.631-58.3008C143.555-58.3008 140.918-55.7129 140.918-52.5879C140.918-49.5117 143.555-47.0215 146.631-47.0215ZM33.2031-10.2539C25.8301-10.2539 22.168-14.1113 22.168-19.4824C22.168-24.3164 25.2441-27.9297 31.9336-29.6387C34.7656-30.3711 35.4492-31.6406 35.8887-34.4238C38.0371-48.6328 46.6309-56.0547 57.5684-56.0547C65.8203-56.0547 72.7051-51.2695 77.3926-42.5293C78.6621-40.2344 79.9316-39.4043 82.8125-39.4043C95.5566-39.4043 101.416-32.7637 101.416-24.3164C101.416-16.3574 95.4102-10.2539 86.2793-10.2539ZM137.451-15.2344C139.697-12.9883 143.311-12.9395 145.508-15.1367C147.705-17.334 147.607-20.8984 145.41-23.1445L139.404-29.2969C137.256-31.543 133.496-31.4941 131.299-29.2969C129.15-27.0996 129.248-23.4863 131.396-21.2891Z"/>
  </g>
  <g id="Bold-M" transform="matrix(1 0 0 1 2269.96 1126)">
   <path d="M105.273-82.959C108.105-82.959 110.4-85.3516 110.4-88.1348L110.4-97.3633C110.4-100.195 108.105-102.539 105.273-102.539C102.49-102.539 100.195-100.195 100.195-97.3633L100.195-88.1348C100.195-85.3516 102.49-82.959 105.273-82.959ZM74.9512-73.4375C77.002-71.4355 80.2734-71.4355 82.2266-73.3887C84.1797-75.3418 84.1309-78.5645 82.1777-80.6152L75.6348-87.2559C73.6816-89.2578 70.3613-89.209 68.4082-87.2559C66.4062-85.2539 66.5039-81.9824 68.457-80.0293ZM128.369-73.3398C130.322-71.3867 133.643-71.4355 135.645-73.4375L142.188-79.9805C144.189-81.9336 144.189-85.2539 142.188-87.207C140.234-89.1602 136.963-89.1602 134.961-87.1582L128.369-80.6152C126.367-78.6621 126.416-75.3418 128.369-73.3398ZM31.6406 2.68555L85.1562 2.68555C100.391 2.68555 112.207-8.88672 112.207-23.7793C112.207-24.707 112.158-25.6348 112.061-26.5137C122.607-29.3457 130.273-38.8184 130.273-50.3418C130.273-64.209 119.189-75.293 105.371-75.293C93.6035-75.293 83.8867-67.4316 81.1523-56.6406C75.0488-63.623 66.4551-67.5293 56.2012-67.5293C39.4043-67.5293 25.4395-55.2246 23.0469-38.5254C14.4043-35.7422 8.74023-28.1738 8.74023-18.7012C8.74023-6.29883 18.2129 2.68555 31.6406 2.68555ZM105.322-65.0879C113.477-65.0879 119.971-58.5938 119.971-50.4395C119.971-43.6523 115.381-37.9395 109.18-36.3281C105.518-43.2129 98.877-48.1445 90.7227-49.8047C90.6738-50 90.6738-50.2441 90.6738-50.4395C90.6738-58.5938 97.168-65.0879 105.322-65.0879ZM31.8359-8.74023C24.1699-8.74023 20.2148-12.8906 20.2148-18.5547C20.2148-23.4863 23.291-27.4414 30.127-29.1992C32.8125-29.8828 33.5449-31.1035 33.9355-33.7891C35.6934-47.8027 44.873-56.1035 56.2012-56.1035C64.8926-56.1035 71.9238-51.123 76.5625-42.2852C77.7832-40.0391 79.0039-39.2578 81.7383-39.2578C94.4824-39.2578 100.732-32.2754 100.732-23.584C100.732-15.2832 94.2871-8.74023 84.9609-8.74023ZM142.969-45.3125L152.246-45.3125C155.029-45.3125 157.373-47.5586 157.373-50.3418C157.373-53.1738 155.029-55.4688 152.246-55.4688L142.969-55.4688C140.186-55.4688 137.842-53.1738 137.842-50.3418C137.842-47.5586 140.186-45.3125 142.969-45.3125ZM134.961-13.4766C136.963-11.4746 140.186-11.4746 142.188-13.4766C144.141-15.4297 144.092-18.6523 142.09-20.7031L135.596-27.2949C133.643-29.248 130.273-29.248 128.32-27.2949C126.367-25.293 126.416-22.0215 128.369-20.0684Z"/>
  </g>
  <g id="Semibold-M" transform="matrix(1 0 0 1 1974.13 1126)">
   <path d="M103.369-81.2012C106.006-81.2012 108.105-83.3984 108.105-85.9375L108.105-95.6543C108.105-98.291 106.006-100.391 103.369-100.391C100.781-100.391 98.6816-98.291 98.6816-95.6543L98.6816-85.9375C98.6816-83.3984 100.781-81.2012 103.369-81.2012ZM73.7793-71.7285C75.6836-69.8242 78.7598-69.8242 80.5176-71.6797C82.3242-73.4863 82.3242-76.4648 80.4688-78.3203L73.584-85.3027C71.7773-87.1094 68.75-87.1094 66.8945-85.3027C65.0879-83.4473 65.1367-80.4199 66.9434-78.6133ZM126.27-71.6309C128.076-69.8242 131.152-69.8242 133.008-71.6797L139.844-78.5645C141.699-80.4199 141.699-83.4473 139.893-85.2539C138.086-87.0605 135.059-87.0605 133.252-85.2051L126.318-78.3203C124.463-76.5137 124.512-73.4863 126.27-71.6309ZM30.8594 2.44141L84.1309 2.44141C98.9258 2.44141 110.449-8.83789 110.449-23.3398C110.449-23.9746 110.4-24.6094 110.352-25.1953C120.654-28.1738 128.076-37.5488 128.076-48.7793C128.076-62.5 117.139-73.4863 103.418-73.4863C91.9922-73.4863 82.5195-65.8691 79.6387-55.4199C73.6328-62.3535 65.1855-66.2109 55.2734-66.2109C38.6719-66.2109 24.9023-53.8574 22.8027-37.4023C14.3066-34.7168 8.74023-27.3438 8.74023-18.0664C8.74023-6.15234 17.7734 2.44141 30.8594 2.44141ZM103.418-64.4043C112.061-64.4043 118.896-57.5195 118.896-48.877C118.896-41.8945 114.404-36.0352 108.154-34.0332C104.59-41.8457 97.168-47.3633 87.9395-48.7305L87.9395-48.877C87.9395-57.5195 94.7754-64.4043 103.418-64.4043ZM30.9082-7.71484C22.998-7.71484 18.8965-12.1094 18.8965-17.8711C18.8965-22.9004 21.9238-27.0996 28.9062-28.9062C31.4453-29.5898 32.2754-30.7129 32.5684-33.3496C34.1309-47.2656 43.6035-56.1035 55.2734-56.1035C64.2578-56.1035 71.3867-51.0254 76.0254-42.0898C77.1484-39.9414 78.418-39.1602 81.0547-39.1602C93.7012-39.1602 100.293-31.9336 100.293-23.0957C100.293-14.502 93.5059-7.71484 84.0332-7.71484ZM140.43-44.0918L150.195-44.0918C152.783-44.0918 154.883-46.1914 154.883-48.7793C154.932-51.416 152.783-53.5156 150.195-53.5156L140.43-53.5156C137.891-53.5156 135.693-51.416 135.693-48.7793C135.693-46.1914 137.891-44.0918 140.43-44.0918ZM133.203-12.3047C135.059-10.4492 138.037-10.498 139.844-12.3047C141.699-14.1113 141.65-17.1387 139.844-18.9453L132.91-25.8789C131.152-27.6855 128.076-27.7344 126.27-25.8789C124.414-24.0723 124.463-21.0449 126.318-19.2383Z"/>
  </g>
  <g id="Medium-M" transform="matrix(1 0 0 1 1678.07 1126)">
   <path d="M101.953-79.834C104.395-79.834 106.396-81.8848 106.396-84.2773L106.396-94.3359C106.396-96.8262 104.395-98.8281 101.953-98.8281C99.5117-98.8281 97.5098-96.8262 97.5098-94.3359L97.5098-84.2773C97.5098-81.8848 99.5117-79.834 101.953-79.834ZM72.9004-70.3613C74.6582-68.6035 77.5391-68.6523 79.1992-70.3613C80.9082-72.0703 80.9082-74.8535 79.1992-76.6113L72.0215-83.7891C70.3125-85.5469 67.4805-85.498 65.7715-83.7891C64.0625-82.0801 64.1113-79.248 65.8203-77.5391ZM124.707-70.3613C126.367-68.6523 129.248-68.6035 131.006-70.3613L138.135-77.5391C139.844-79.248 139.844-82.0801 138.135-83.7891C136.426-85.498 133.643-85.498 131.885-83.7402L124.707-76.6113C122.998-74.9023 123.047-72.0703 124.707-70.3613ZM30.2246 2.19727L83.3008 2.19727C97.8516 2.19727 109.082-8.78906 109.082-22.9492C109.082-23.3887 109.082-23.7793 109.082-24.2188C119.141-27.2461 126.416-36.5723 126.416-47.6074C126.416-61.2305 115.527-72.1191 102.002-72.1191C90.7715-72.1191 81.4453-64.7461 78.5156-54.541C72.5586-61.3281 64.209-65.2344 54.5898-65.2344C38.1836-65.2344 24.5117-52.832 22.6074-36.5234C14.3066-33.9355 8.74023-26.6602 8.74023-17.5781C8.74023-6.05469 17.4316 2.19727 30.2246 2.19727ZM101.953-63.8672C110.986-63.8672 118.115-56.7383 118.115-47.6562C118.115-40.5762 113.623-34.5215 107.324-32.3242C103.906-40.7715 95.8496-46.7285 85.8398-47.8516C85.8398-56.7383 92.9199-63.8672 101.953-63.8672ZM30.1758-6.93359C22.1191-6.93359 17.8711-11.4746 17.8711-17.3828C17.8711-22.4609 20.8984-26.8066 27.9785-28.7109C30.4199-29.3457 31.25-30.4688 31.543-33.0078C32.9102-46.8262 42.6758-56.1035 54.5898-56.1035C63.7695-56.1035 70.9961-50.9766 75.5859-41.9434C76.709-39.8438 77.9297-39.0625 80.5176-39.0625C93.1641-39.0625 99.9512-31.6895 99.9512-22.7539C99.9512-13.916 92.8711-6.93359 83.3496-6.93359ZM138.525-43.2129L148.633-43.2129C151.025-43.2129 153.027-45.166 153.027-47.6074C153.027-50.0488 151.025-52.0508 148.633-52.0508L138.525-52.0508C136.133-52.0508 134.082-50.0488 134.082-47.6074C134.082-45.166 136.133-43.2129 138.525-43.2129ZM131.885-11.4258C133.643-9.7168 136.426-9.7168 138.135-11.4258C139.844-13.1348 139.844-15.9668 138.086-17.6758L130.908-24.8535C129.248-26.5137 126.416-26.5625 124.707-24.8535C122.998-23.1445 122.998-20.3125 124.707-18.6035Z"/>
  </g>
  <g id="Regular-M" transform="matrix(1 0 0 1 1382.24 1126)">
   <path d="M100.098-78.0762C102.295-78.0762 104.15-79.9316 104.15-82.1289L104.15-92.6758C104.15-94.9219 102.295-96.7285 100.098-96.7285C97.8516-96.7285 96.0449-94.9219 96.0449-92.6758L96.0449-82.1289C96.0449-79.9316 97.8516-78.0762 100.098-78.0762ZM71.7773-68.6523C73.3398-67.041 76.0254-67.0898 77.5391-68.6523C79.0527-70.2148 79.1016-72.7539 77.5391-74.3164L69.9707-81.8359C68.4082-83.4473 65.8691-83.3984 64.3066-81.8359C62.7441-80.3223 62.7441-77.7344 64.3066-76.123ZM122.656-68.6523C124.17-67.0898 126.807-67.041 128.418-68.6523L135.84-76.123C137.402-77.7344 137.402-80.3223 135.84-81.8359C134.277-83.3984 131.738-83.4473 130.176-81.8359L122.656-74.3164C121.094-72.7539 121.143-70.2148 122.656-68.6523ZM29.4434 1.95312L82.2754 1.95312C96.3867 1.95312 107.324-8.74023 107.324-22.5098C107.324-22.6074 107.324-22.7539 107.324-22.8516C117.188-26.0254 124.219-35.2539 124.219-46.0938C124.219-59.5215 113.477-70.3125 100.049-70.3125C89.209-70.3125 80.0781-63.2324 77.002-53.3691C71.1426-60.0586 62.9395-63.9648 53.6621-63.9648C37.5-63.9648 23.9746-51.4648 22.3633-35.4004C14.209-32.8613 8.74023-25.8301 8.74023-16.9434C8.74023-5.95703 16.9922 1.95312 29.4434 1.95312ZM100.049-63.1348C109.619-63.1348 117.041-55.6641 117.041-46.0938C117.041-38.7695 112.598-32.5195 106.152-29.9805C103.076-39.3555 94.2383-45.9473 83.1055-46.6309C83.3496-55.957 90.7227-63.1348 100.049-63.1348ZM29.248-5.85938C20.9473-5.85938 16.5527-10.6445 16.5527-16.748C16.5527-21.9238 19.5801-26.5137 26.7578-28.418C29.1016-29.0527 29.9805-30.0781 30.1758-32.5684C31.2988-46.2402 41.4551-56.1035 53.6621-56.1035C63.1348-56.1035 70.5078-50.8789 75.0488-41.7969C76.0742-39.6973 77.2949-38.9648 79.7852-38.9648C92.3828-38.9648 99.5117-31.3477 99.5117-22.2656C99.5117-13.1836 92.0898-5.85938 82.4219-5.85938ZM136.035-42.041L146.582-42.041C148.779-42.041 150.586-43.8477 150.586-46.0938C150.635-48.3398 148.779-50.1465 146.582-50.1465L136.035-50.1465C133.838-50.1465 131.982-48.3398 131.982-46.0938C131.982-43.8477 133.838-42.041 136.035-42.041ZM130.176-10.2539C131.738-8.69141 134.277-8.74023 135.84-10.3027C137.402-11.8652 137.402-14.4531 135.84-15.9668L128.32-23.4863C126.758-25 124.219-25.0488 122.656-23.4863C121.094-21.9238 121.094-19.2871 122.656-17.7246Z"/>
  </g>
  <g id="Light-M" transform="matrix(1 0 0 1 1085.95 1126)">
   <path d="M99.5605-78.8086C101.221-78.8086 102.637-80.2246 102.637-81.8848L102.637-93.75C102.637-95.4102 101.221-96.7773 99.5605-96.7773C97.8516-96.7773 96.4844-95.4102 96.4844-93.75L96.4844-81.8848C96.4844-80.2246 97.8516-78.8086 99.5605-78.8086ZM72.6562-69.3848C73.8281-68.1641 75.8301-68.2129 77.002-69.3848C78.125-70.5566 78.1738-72.5098 77.002-73.6816L68.5547-82.1289C67.334-83.3496 65.4297-83.3008 64.2578-82.1289C63.0859-80.957 63.0371-79.0039 64.2578-77.832ZM122.119-69.3848C123.242-68.2129 125.244-68.1641 126.465-69.3848L134.863-77.832C136.084-79.0039 136.035-80.957 134.863-82.1289C133.691-83.3008 131.787-83.3496 130.566-82.1289L122.119-73.6816C120.947-72.5098 120.947-70.5566 122.119-69.3848ZM28.6621 0.927734L81.8359 0.927734C95.6055 0.927734 106.299-9.42383 106.299-22.7539C106.299-23.0957 106.299-23.4375 106.299-23.7793C116.162-26.9531 123.193-36.1816 123.193-46.8262C123.193-60.0098 112.646-70.5566 99.5117-70.5566C88.4277-70.5566 79.248-63.0371 76.6113-52.7832C70.8496-59.6191 62.793-63.7207 53.2227-63.7207C37.3535-63.7207 24.2188-51.2207 22.6562-35.2539C14.5508-32.8613 8.74023-26.123 8.74023-17.1875C8.74023-6.83594 16.5527 0.927734 28.6621 0.927734ZM99.5117-64.9902C109.668-64.9902 117.627-57.0312 117.627-46.8262C117.627-38.916 112.598-32.0312 105.371-29.2969C102.49-39.0625 93.1641-45.8984 81.4453-46.1426C81.4453-46.3867 81.4453-46.582 81.4453-46.8262C81.4453-57.0312 89.3555-64.9902 99.5117-64.9902ZM28.5645-4.98047C19.5801-4.98047 14.6973-10.3516 14.6973-17.0898C14.6973-22.998 18.4082-27.832 25.7324-29.8828C27.7344-30.4199 28.418-31.25 28.5645-33.2031C29.6387-47.2168 40.4785-57.7637 53.2227-57.7637C63.6719-57.7637 71.3867-51.8066 75.9766-42.6758C76.8555-40.918 77.8809-40.332 79.9316-40.332C92.4316-40.332 100.342-32.3242 100.342-22.5586C100.342-12.8418 92.334-4.98047 81.9336-4.98047ZM134.473-43.7988L146.387-43.7988C148.047-43.7988 149.414-45.166 149.414-46.8262C149.463-48.5352 148.047-49.9023 146.387-49.9023L134.473-49.9023C132.812-49.9023 131.445-48.5352 131.445-46.8262C131.445-45.166 132.812-43.7988 134.473-43.7988ZM130.566-11.4746C131.787-10.2539 133.691-10.3027 134.863-11.5234C136.035-12.6953 136.084-14.5996 134.863-15.8203L126.416-24.2188C125.244-25.3418 123.291-25.3906 122.119-24.2188C120.947-23.0469 120.947-21.0449 122.119-19.873Z"/>
  </g>
  <g id="Thin-M" transform="matrix(1 0 0 1 789.796 1126)">
   <path d="M98.877-79.7852C99.8047-79.7852 100.635-80.6152 100.635-81.543L100.635-95.166C100.635-96.1426 99.8047-96.9238 98.877-96.9238C97.9004-96.9238 97.0703-96.1426 97.0703-95.166L97.0703-81.543C97.0703-80.6152 97.9004-79.7852 98.877-79.7852ZM73.7793-70.3613C74.4629-69.6777 75.6348-69.7266 76.2695-70.3613C76.9531-71.0449 76.9531-72.168 76.2695-72.8516L66.6504-82.5195C65.918-83.252 64.8438-83.2031 64.1602-82.5195C63.4766-81.8359 63.4277-80.7617 64.1602-80.0293ZM121.436-70.3613C122.07-69.7266 123.242-69.6777 123.926-70.3613L133.545-80.0293C134.277-80.7617 134.229-81.8359 133.545-82.5195C132.861-83.2031 131.787-83.252 131.055-82.5195L121.436-72.8516C120.752-72.168 120.752-71.0449 121.436-70.3613ZM27.6855-0.341797L81.25-0.341797C94.5312-0.341797 104.932-10.4004 104.932-23.0957C104.932-23.7305 104.883-24.3652 104.834-25C114.795-28.1738 121.777-37.3535 121.777-47.8027C121.777-60.6445 111.572-70.8984 98.7793-70.8984C87.4512-70.8984 78.0762-62.7441 76.1719-51.9043C70.5078-59.0332 62.5977-63.4277 52.6367-63.4277C37.207-63.4277 24.4629-50.9277 23.0469-35.0098C14.9902-32.8613 8.74023-26.4648 8.74023-17.5293C8.74023-8.00781 15.918-0.341797 27.6855-0.341797ZM98.7793-67.4316C109.766-67.4316 118.359-58.7891 118.359-47.8027C118.359-39.1113 112.598-31.2988 104.297-28.3691C101.758-38.3789 92.2852-45.4102 80.3223-45.5078C79.9805-46.1426 79.6387-46.7773 79.248-47.4121C79.248-47.5586 79.248-47.6562 79.248-47.8027C79.248-58.7891 87.8418-67.4316 98.7793-67.4316ZM27.6367-3.85742C17.7246-3.85742 12.207-9.96094 12.207-17.4805C12.207-24.3652 16.8457-29.5898 24.4141-31.7871C25.9277-32.2266 26.3672-32.8125 26.4648-34.082C27.4414-48.4375 39.209-59.9609 52.6367-59.9609C64.3555-59.9609 72.6074-53.0273 77.1973-43.8477C77.8809-42.5293 78.6133-42.0898 80.1758-42.0898C92.5293-42.0898 101.465-33.5938 101.465-22.9492C101.465-12.4023 92.627-3.85742 81.25-3.85742ZM132.471-46.0938L146.094-46.0938C147.07-46.0938 147.803-46.875 147.852-47.8027C147.9-48.7793 147.07-49.5605 146.094-49.5605L132.471-49.5605C131.494-49.5605 130.713-48.7793 130.713-47.8027C130.713-46.875 131.494-46.0938 132.471-46.0938ZM131.055-13.0859C131.787-12.3535 132.861-12.4023 133.545-13.0859C134.229-13.7695 134.277-14.8438 133.545-15.5762L123.877-25.1953C123.242-25.8789 122.07-25.8789 121.436-25.1953C120.752-24.5117 120.752-23.3887 121.436-22.7051Z"/>
  </g>
  <g id="Ultralight-M" transform="matrix(1 0 0 1 493.354 1126)">
   <path d="M98.4863-80.3223C99.0723-80.3223 99.6094-80.8594 99.6094-81.3477L99.6094-95.8984C99.6094-96.4844 99.0723-96.9727 98.4863-96.9727C97.9004-96.9727 97.3633-96.4844 97.3633-95.8984L97.3633-81.3477C97.3633-80.8594 97.9004-80.3223 98.4863-80.3223ZM74.4141-70.8984C74.8047-70.459 75.5371-70.459 75.9277-70.8984C76.3672-71.2891 76.3672-72.0215 75.9277-72.4121L65.6738-82.7148C65.1855-83.2031 64.5508-83.1055 64.1113-82.7148C63.7207-82.2754 63.623-81.6406 64.1113-81.1523ZM121.045-70.8984C121.484-70.459 122.168-70.459 122.607-70.8984L132.861-81.1523C133.35-81.6406 133.301-82.2754 132.861-82.7148C132.471-83.1055 131.787-83.2031 131.348-82.7148L121.045-72.4121C120.654-72.0215 120.654-71.2891 121.045-70.8984ZM27.1973-1.02539L80.957-1.02539C93.9941-1.02539 104.199-10.8887 104.199-23.2422C104.199-24.0234 104.15-24.8047 104.102-25.5859C114.062-28.8086 121.094-37.9883 121.094-48.3398C121.094-60.9863 110.986-71.0449 98.4375-71.0449C86.9141-71.0449 77.4414-62.5488 75.9766-51.416C70.3613-58.6914 62.5-63.2812 52.3438-63.2812C37.1582-63.2812 24.6094-50.7812 23.2422-34.8633C15.2344-32.8125 8.74023-26.6602 8.74023-17.6758C8.74023-8.64258 15.625-1.02539 27.1973-1.02539ZM98.4375-68.7012C109.814-68.7012 118.75-59.7168 118.75-48.3398C118.75-39.209 112.598-30.957 103.711-27.9297C101.465-37.9883 91.9434-45.0684 79.9316-45.166C79.3457-46.2402 78.7598-47.3145 78.125-48.3398C78.125-59.7168 87.0605-68.7012 98.4375-68.7012ZM27.1973-3.22266C16.7969-3.22266 10.9375-9.76562 10.9375-17.7246C10.9375-25.0977 16.0645-30.4688 23.7305-32.7637C25-33.1543 25.3418-33.5938 25.3906-34.5703C26.3184-49.0723 38.5254-61.084 52.3438-61.084C64.7461-61.084 73.2422-53.6133 77.832-44.4824C78.3691-43.3594 79.0039-43.0176 80.2734-43.0176C92.5781-43.0176 102.002-34.2773 102.002-23.1445C102.002-12.1582 92.7734-3.22266 80.9082-3.22266ZM131.396-47.2656L145.947-47.2656C146.582-47.2656 147.021-47.7539 147.07-48.3398C147.119-48.9258 146.582-49.4141 145.947-49.4141L131.396-49.4141C130.811-49.4141 130.322-48.9258 130.322-48.3398C130.322-47.7539 130.811-47.2656 131.396-47.2656ZM131.348-13.8672C131.787-13.4277 132.471-13.4766 132.861-13.8672C133.301-14.3066 133.35-14.9414 132.861-15.4297L122.607-25.6836C122.168-26.123 121.484-26.123 121.045-25.6836C120.654-25.293 120.654-24.5605 121.045-24.1699Z"/>
  </g>
  <g id="Black-S" transform="matrix(1 0 0 1 2876.71 696)">
   <path d="M86.377-76.2695C89.0137-76.2695 91.1621-78.5156 91.1621-81.1523L91.1621-87.4023C91.1621-90.0879 89.0137-92.2852 86.377-92.2852C83.7402-92.2852 81.5918-90.0879 81.5918-87.4023L81.5918-81.1523C81.5918-78.5156 83.7402-76.2695 86.377-76.2695ZM61.1328-68.75C63.0371-66.8457 66.1133-66.7969 67.9688-68.6523C69.8242-70.5078 69.7266-73.5352 67.8711-75.4883L63.5254-79.9805C61.7188-81.8848 58.4961-81.8359 56.6406-79.9805C54.7852-78.125 54.8828-75.0488 56.7383-73.1934ZM104.834-68.6035C106.689-66.748 109.814-66.8457 111.67-68.7012L116.113-73.0957C118.018-74.9512 118.018-78.0762 116.162-79.9316C114.307-81.7871 111.23-81.7383 109.326-79.834L104.883-75.4883C102.979-73.6328 102.979-70.459 104.834-68.6035ZM26.4648-4.93164L68.8965-4.93164C81.6406-4.93164 91.5527-14.6973 91.5527-27.2461C91.5527-28.5156 91.4551-29.7363 91.2598-30.9082C100.098-32.959 106.592-40.625 106.592-50.1953C106.592-61.4258 97.6562-70.3613 86.5234-70.3613C76.6113-70.3613 68.5547-63.5742 66.6504-54.3945C61.7676-60.1562 54.7363-63.1836 45.9473-63.1836C32.2754-63.1836 21.0449-53.7109 18.5547-40.1367C11.377-37.793 6.83594-31.4453 6.83594-23.584C6.83594-12.793 15.1855-4.93164 26.4648-4.93164ZM86.4746-60.0586C91.7969-60.0586 96.1426-55.7129 96.1426-50.3906C96.1426-45.3125 92.2363-41.1621 87.3047-40.7227C84.7656-44.2871 81.1523-47.0215 76.9043-48.5352C76.8066-49.1699 76.7578-49.8535 76.7578-50.3906C76.7578-55.7129 81.1035-60.0586 86.4746-60.0586ZM117.236-45.5078L123.486-45.5078C126.172-45.5078 128.369-47.6074 128.369-50.2441C128.369-52.8809 126.172-55.0781 123.486-55.0781L117.236-55.0781C114.6-55.0781 112.354-52.8809 112.354-50.2441C112.354-47.6074 114.6-45.5078 117.236-45.5078ZM26.9043-16.6504C21.3379-16.6504 18.6035-19.4336 18.6035-23.4863C18.6035-27.1973 21.0449-29.7852 26.1719-31.1035C28.4668-31.6895 29.0039-32.7148 29.3945-35.0098C31.2988-46.2402 37.6953-51.5137 45.9473-51.5137C52.1484-51.5137 57.4219-47.8516 61.1328-41.1133C62.1582-39.2578 63.1836-38.5742 65.5273-38.5742C75.5371-38.5742 79.834-33.5938 79.834-27.0996C79.834-21.1426 75.4883-16.6504 68.457-16.6504ZM109.277-20.6055C111.182-18.7012 114.258-18.6523 116.113-20.5078C117.969-22.3633 117.871-25.3906 116.016-27.3438L111.67-31.8359C109.863-33.7402 106.641-33.6914 104.785-31.8359C102.93-29.9805 103.027-26.9043 104.883-25.0488Z"/>
  </g>
  <g id="Heavy-S" transform="matrix(1 0 0 1 2580.83 696)">
   <path d="M84.5703-74.4141C87.0605-74.4141 89.0625-76.5137 89.0625-79.0039L89.0625-85.5957C89.0625-88.1348 87.0605-90.1855 84.5703-90.1855C82.0801-90.1855 80.0293-88.1348 80.0293-85.5957L80.0293-79.0039C80.0293-76.5137 82.0801-74.4141 84.5703-74.4141ZM59.8633-66.9434C61.6699-65.1367 64.5508-65.0879 66.3086-66.8457C68.0664-68.6035 67.9688-71.4844 66.2598-73.291L61.6211-78.0273C59.9121-79.7852 56.9336-79.7363 55.1758-78.0273C53.418-76.2695 53.4668-73.3398 55.2246-71.6309ZM102.832-66.8457C104.541-65.0879 107.52-65.1367 109.277-66.8945L113.916-71.5332C115.723-73.291 115.723-76.2207 113.965-77.9785C112.207-79.7363 109.326-79.6875 107.52-77.8809L102.881-73.291C101.074-71.5332 101.074-68.5547 102.832-66.8457ZM25.7324-5.07812L67.9199-5.07812C80.2734-5.07812 89.8926-14.5508 89.8926-26.7578C89.8926-27.7344 89.8438-28.6621 89.7461-29.5898C98.2422-31.7383 104.492-39.2578 104.492-48.584C104.492-59.668 95.6543-68.5059 84.668-68.5059C75.1465-68.5059 67.2852-62.1094 65.1855-53.3203C60.3516-58.9355 53.4668-61.9141 45.0684-61.9141C31.5918-61.9141 20.5078-52.3926 18.2617-39.0137C11.2793-36.7676 6.83594-30.5664 6.83594-22.9004C6.83594-12.5488 14.7949-5.07812 25.7324-5.07812ZM84.6191-59.1309C90.3809-59.1309 95.0195-54.4922 95.0195-48.7305C95.0195-43.6035 91.3574-39.4043 86.5723-38.5742C83.7891-42.9688 79.4922-46.2402 74.2188-47.7051C74.2188-48.0469 74.1699-48.4375 74.1699-48.7305C74.1699-54.4922 78.8086-59.1309 84.6191-59.1309ZM114.893-44.1406L121.484-44.1406C123.975-44.1406 126.025-46.1426 126.025-48.6328C126.025-51.123 123.975-53.1738 121.484-53.1738L114.893-53.1738C112.402-53.1738 110.303-51.123 110.303-48.6328C110.303-46.1426 112.402-44.1406 114.893-44.1406ZM26.0254-15.7227C20.3125-15.7227 17.4805-18.6523 17.4805-22.8027C17.4805-26.5137 19.8242-29.2969 25.0488-30.6641C27.2949-31.2012 27.8809-32.2266 28.2227-34.4727C29.8828-45.5566 36.5723-51.3672 45.0684-51.3672C51.4648-51.3672 56.7871-47.6562 60.498-40.8203C61.4746-39.0137 62.5-38.3301 64.7949-38.3301C74.8047-38.3301 79.2969-33.1543 79.2969-26.6113C79.2969-20.4102 74.6582-15.7227 67.5781-15.7227ZM107.52-19.2871C109.277-17.5293 112.207-17.4805 113.916-19.2383C115.674-20.9961 115.625-23.877 113.867-25.6836L109.229-30.3711C107.52-32.1289 104.541-32.1289 102.783-30.3711C101.025-28.6133 101.123-25.7324 102.881-23.9746Z"/>
  </g>
  <g id="Bold-S" transform="matrix(1 0 0 1 2285.05 696)">
   <path d="M82.5195-72.3633C84.8633-72.3633 86.7676-74.3164 86.7676-76.6113L86.7676-83.5449C86.7676-85.8887 84.8633-87.8418 82.5195-87.8418C80.2246-87.8418 78.3203-85.8887 78.3203-83.5449L78.3203-76.6113C78.3203-74.3164 80.2246-72.3633 82.5195-72.3633ZM58.4473-64.8926C60.1562-63.2324 62.8906-63.2324 64.502-64.8438C66.1133-66.5039 66.0645-69.1406 64.4531-70.8496L59.5215-75.7812C57.9102-77.4414 55.1758-77.4414 53.5156-75.7812C51.9043-74.1699 51.9531-71.4844 53.5645-69.8242ZM100.586-64.8438C102.197-63.1836 104.98-63.2324 106.592-64.8926L111.523-69.7754C113.184-71.4355 113.184-74.1699 111.523-75.7812C109.912-77.3926 107.227-77.3926 105.566-75.7324L100.635-70.8496C98.9746-69.1895 98.9746-66.4551 100.586-64.8438ZM24.9512-5.27344L66.7969-5.27344C78.7598-5.27344 88.0859-14.4043 88.0859-26.1719C88.0859-26.8555 88.0371-27.4414 87.9883-28.0762C96.2402-30.3223 102.197-37.7441 102.197-46.7773C102.197-57.7148 93.5059-66.4551 82.6172-66.4551C73.4375-66.4551 65.8691-60.4004 63.5742-52.0508C58.7891-57.5195 52.0508-60.498 44.0918-60.498C30.8594-60.498 19.873-50.8789 17.9688-37.793C11.1816-35.5957 6.83594-29.5898 6.83594-22.168C6.83594-12.3047 14.3555-5.27344 24.9512-5.27344ZM82.5684-58.1055C88.8184-58.1055 93.7988-53.1738 93.7988-46.875C93.7988-41.6992 90.332-37.3535 85.6445-36.1328C82.8125-41.4551 77.6367-45.3613 71.3379-46.6797C71.3379-46.7285 71.3379-46.8262 71.3379-46.875C71.3379-53.1738 76.3184-58.1055 82.5684-58.1055ZM25.0488-14.6484C19.1895-14.6484 16.2598-17.7734 16.2598-22.0703C16.2598-25.7324 18.457-28.7598 23.7793-30.127C25.9766-30.7129 26.6113-31.6895 26.9043-33.9355C28.3203-44.8242 35.3027-51.1719 44.0918-51.1719C50.6836-51.1719 56.1035-47.4609 59.7168-40.5273C60.6934-38.6719 61.7188-38.0371 63.9648-38.0371C73.9746-38.0371 78.7109-32.666 78.7109-26.0254C78.7109-19.6289 73.7793-14.6484 66.6504-14.6484ZM112.305-42.627L119.238-42.627C121.533-42.627 123.486-44.4824 123.486-46.8262C123.486-49.1211 121.533-51.0742 119.238-51.0742L112.305-51.0742C109.961-51.0742 108.008-49.1211 108.008-46.8262C108.008-44.4824 109.961-42.627 112.305-42.627ZM105.566-17.8223C107.227-16.2109 109.912-16.2109 111.523-17.8223C113.135-19.4336 113.086-22.1191 111.475-23.7793L106.543-28.7598C104.98-30.3711 102.197-30.3711 100.586-28.7598C98.9258-27.0996 98.9746-24.4141 100.635-22.7539Z"/>
  </g>
  <g id="Semibold-S" transform="matrix(1 0 0 1 1988.99 696)">
   <path d="M81.1523-70.8984C83.3496-70.8984 85.1562-72.8027 85.1562-74.9512L85.1562-82.1777C85.1562-84.375 83.3496-86.1816 81.1523-86.1816C78.9062-86.1816 77.0996-84.375 77.0996-82.1777L77.0996-74.9512C77.0996-72.8027 78.9062-70.8984 81.1523-70.8984ZM57.5195-63.4766C59.082-61.9141 61.7188-61.9141 63.2324-63.4766C64.7461-65.0391 64.7461-67.5293 63.1836-69.1406L58.1055-74.2676C56.543-75.8301 53.9551-75.8301 52.3926-74.2676C50.8789-72.7539 50.8789-70.166 52.4414-68.6035ZM99.0723-63.4766C100.586-61.9141 103.223-61.9141 104.785-63.4766L109.863-68.5547C111.426-70.1172 111.426-72.7051 109.863-74.2676C108.301-75.8301 105.762-75.7812 104.199-74.2188L99.0723-69.1406C97.5098-67.5781 97.5586-64.9902 99.0723-63.4766ZM24.3652-5.41992L66.0156-5.41992C77.7344-5.41992 86.8164-14.3066 86.8164-25.8301C86.8164-26.2207 86.8164-26.6113 86.7676-27.002C94.8242-29.3457 100.635-36.6699 100.635-45.5566C100.635-56.3965 91.9922-65.0391 81.2012-65.0391C72.2656-65.0391 64.8926-59.2285 62.5-51.2207C57.7637-56.543 51.0742-59.5215 43.457-59.5215C30.3223-59.5215 19.4336-49.8535 17.7734-36.9629C11.1328-34.8145 6.83594-28.9062 6.83594-21.6797C6.83594-12.1582 14.0625-5.41992 24.3652-5.41992ZM81.1523-57.4219C87.7441-57.4219 92.9688-52.2461 92.9688-45.6055C92.9688-40.332 89.5996-35.9375 84.9121-34.4238C82.1289-40.4297 76.4648-44.7266 69.3848-45.8496C69.3848-52.2461 74.5605-57.4219 81.1523-57.4219ZM24.4141-13.916C18.4082-13.916 15.3809-17.1875 15.3809-21.5332C15.3809-25.1953 17.5293-28.3691 22.9492-29.7852C25.0488-30.3223 25.7324-31.2988 25.9766-33.4961C27.2461-44.2871 34.4727-51.0254 43.457-51.0254C50.1465-51.0254 55.6152-47.3145 59.2285-40.332C60.1562-38.4766 61.2305-37.8418 63.4277-37.8418C73.3887-37.8418 78.2715-32.3242 78.2715-25.6348C78.2715-19.0918 73.1445-13.916 65.9668-13.916ZM110.498-41.5527L117.676-41.5527C119.873-41.5527 121.68-43.3594 121.68-45.5566C121.68-47.7539 119.873-49.6094 117.676-49.6094L110.498-49.6094C108.301-49.6094 106.445-47.7539 106.445-45.5566C106.445-43.3594 108.301-41.5527 110.498-41.5527ZM104.199-16.8457C105.762-15.2832 108.301-15.2832 109.863-16.8457C111.426-18.4082 111.377-20.9473 109.814-22.5098L104.736-27.6367C103.174-29.1504 100.586-29.1504 99.0234-27.6367C97.5098-26.0742 97.5098-23.4863 99.0723-21.9238Z"/>
  </g>
  <g id="Medium-S" transform="matrix(1 0 0 1 1692.77 696)">
   <path d="M80.0781-69.8242C82.2266-69.8242 83.9355-71.6309 83.9355-73.7305L83.9355-81.1035C83.9355-83.252 82.2266-84.9609 80.0781-84.9609C77.9297-84.9609 76.2207-83.252 76.2207-81.1035L76.2207-73.7305C76.2207-71.6309 77.9297-69.8242 80.0781-69.8242ZM56.7871-62.4512C58.3008-60.8887 60.8398-60.9375 62.2559-62.4023C63.7207-63.916 63.7207-66.3574 62.2559-67.8223L56.9824-73.1445C55.5176-74.6094 53.0273-74.6094 51.5625-73.1445C50.0977-71.6309 50.0977-69.1895 51.5625-67.6758ZM97.9004-62.4023C99.3652-60.9375 101.855-60.8887 103.369-62.4512L108.594-67.6758C110.107-69.1406 110.107-71.6309 108.594-73.1445C107.129-74.6094 104.688-74.6094 103.174-73.0957L97.9004-67.8223C96.3867-66.3574 96.4355-63.916 97.9004-62.4023ZM23.9746-5.51758L65.4297-5.51758C76.9531-5.51758 85.8398-14.209 85.8398-25.5371C85.8398-25.7324 85.8398-25.9766 85.8398-26.1719C93.75-28.5645 99.4141-35.8887 99.4141-44.6289C99.4141-55.3711 90.8203-63.9648 80.0781-63.9648C71.3867-63.9648 64.1113-58.3496 61.6699-50.5371C56.9336-55.8105 50.3906-58.7891 42.9199-58.7891C29.9316-58.7891 19.0918-49.0723 17.5781-36.3281C11.0352-34.1797 6.83594-28.418 6.83594-21.2891C6.83594-12.0117 13.8672-5.51758 23.9746-5.51758ZM80.0781-56.8848C86.9141-56.8848 92.2852-51.5137 92.2852-44.6289C92.2852-39.3066 89.0137-34.8145 84.375-33.1543C81.6406-39.6484 75.5371-44.2383 67.8711-45.2148C68.1641-51.8066 73.4375-56.8848 80.0781-56.8848ZM23.877-13.3789C17.8223-13.3789 14.7461-16.6992 14.7461-21.1426C14.7461-24.8047 16.7969-28.125 22.2656-29.541C24.3652-30.0781 25.0977-31.0059 25.293-33.2031C26.416-43.8965 33.7891-50.9277 42.9199-50.9277C49.7559-50.9277 55.2734-47.2168 58.8379-40.1367C59.7656-38.3301 60.791-37.6953 62.9883-37.6953C72.9492-37.6953 77.9785-32.0801 77.9785-25.3418C77.9785-18.6523 72.6562-13.3789 65.4785-13.3789ZM109.131-40.7715L116.504-40.7715C118.604-40.7715 120.361-42.4805 120.361-44.6289C120.361-46.7285 118.604-48.4863 116.504-48.4863L109.131-48.4863C107.031-48.4863 105.273-46.7285 105.273-44.6289C105.273-42.4805 107.031-40.7715 109.131-40.7715ZM103.174-16.0645C104.688-14.5996 107.129-14.5996 108.594-16.1133C110.059-17.5781 110.059-20.0684 108.594-21.5332L103.32-26.7578C101.855-28.2227 99.3652-28.2715 97.9004-26.7578C96.3867-25.293 96.4355-22.8027 97.9004-21.3379Z"/>
  </g>
  <g id="Regular-S" transform="matrix(1 0 0 1 1396.7 696)">
   <path d="M78.7109-68.4082C80.7129-68.4082 82.373-70.1172 82.373-72.0703L82.373-79.6875C82.373-81.7383 80.7129-83.3496 78.7109-83.3496C76.709-83.3496 75.0488-81.7383 75.0488-79.6875L75.0488-72.0703C75.0488-70.1172 76.709-68.4082 78.7109-68.4082ZM96.3867-61.0352C97.7539-59.668 100.146-59.6191 101.562-61.0352L106.934-66.4551C108.35-67.8711 108.35-70.2148 106.934-71.6309C105.566-73.0469 103.271-73.0469 101.855-71.6309L96.3867-66.1621C94.9707-64.7461 95.0195-62.4512 96.3867-61.0352ZM55.8105-61.0352C57.2754-59.6191 59.668-59.668 61.0352-61.0352C62.4023-62.4512 62.4512-64.7461 61.0352-66.1621L55.5664-71.6309C54.1504-73.0469 51.8555-73.0469 50.4395-71.6309C49.0234-70.2148 49.0234-67.8711 50.4395-66.4551ZM23.4375-5.61523L64.6973-5.61523C75.8789-5.61523 84.5215-14.0625 84.6191-25.0488C92.334-27.5391 97.8516-34.8145 97.8516-43.3594C97.8516-54.0527 89.3555-62.5977 78.7109-62.5977C70.2637-62.5977 63.1348-57.2266 60.5957-49.6582C55.9082-54.834 49.4629-57.8125 42.2852-57.8125C29.4434-57.8125 18.7012-48.0469 17.3828-35.4492C10.9863-33.3984 6.83594-27.7344 6.83594-20.8008C6.83594-11.8652 13.5742-5.61523 23.4375-5.61523ZM78.7109-56.2012C85.8887-56.2012 91.4551-50.5859 91.4551-43.3594C91.4551-37.9395 88.2324-33.3496 83.5449-31.4453C81.0547-38.5742 74.4141-43.6035 65.9668-44.3848C66.4551-51.123 71.875-56.2012 78.7109-56.2012ZM23.2422-12.6465C17.0898-12.6465 13.8672-16.1133 13.8672-20.6055C13.8672-24.2676 15.8691-27.7344 21.4355-29.1992C23.4863-29.6875 24.2188-30.6641 24.4141-32.8125C25.3418-43.4082 32.959-50.7812 42.2852-50.7812C49.2188-50.7812 54.7852-47.0703 58.3496-39.9414C59.2285-38.1348 60.3027-37.5 62.4512-37.5C72.3633-37.5 77.5879-31.7383 77.5879-24.9512C77.5879-18.1152 72.0703-12.6465 64.7949-12.6465ZM107.373-39.7461L114.99-39.7461C116.943-39.7461 118.604-41.3574 118.604-43.3594C118.604-45.4102 116.943-47.0215 114.99-47.0215L107.373-47.0215C105.371-47.0215 103.711-45.4102 103.711-43.3594C103.711-41.3574 105.371-39.7461 107.373-39.7461ZM101.855-15.0879C103.271-13.6719 105.566-13.7207 106.934-15.1367C108.35-16.5527 108.35-18.8965 106.934-20.2148L101.465-25.6348C100.098-27.002 97.8027-27.0508 96.3867-25.6348C94.9707-24.2676 94.9707-21.9238 96.3867-20.5078Z"/>
  </g>
  <g id="Light-S" transform="matrix(1 0 0 1 1100.35 696)">
   <path d="M78.2227-69.0918C79.7363-69.0918 81.0059-70.3613 81.0059-71.875L81.0059-80.6641C81.0059-82.1777 79.7363-83.4473 78.2227-83.4473C76.709-83.4473 75.4395-82.1777 75.4395-80.6641L75.4395-71.875C75.4395-70.3613 76.709-69.0918 78.2227-69.0918ZM56.5918-61.7188C57.666-60.5957 59.5215-60.6445 60.5469-61.7188C61.5723-62.793 61.6211-64.5508 60.5469-65.625L54.248-71.875C53.1738-72.9492 51.4648-72.9492 50.3906-71.875C49.3164-70.8008 49.3164-69.043 50.3906-67.9688ZM95.8984-61.7188C96.9238-60.6445 98.7305-60.5957 99.8535-61.7188L106.055-67.9688C107.129-69.043 107.129-70.8008 106.055-71.875C104.98-72.9492 103.271-72.9492 102.148-71.875L95.8984-65.625C94.8242-64.5508 94.873-62.793 95.8984-61.7188ZM22.7539-6.49414L64.2578-6.49414C75.1953-6.49414 83.6914-14.7461 83.6914-25.3418C83.6914-25.5371 83.6914-25.7324 83.6914-25.8789C91.4062-28.418 96.9238-35.5957 96.9238-44.043C96.9238-54.4434 88.623-62.793 78.2227-62.793C69.5801-62.793 62.4023-57.0801 60.2051-49.2188C55.6152-54.4922 49.2676-57.6172 41.8457-57.6172C29.3457-57.6172 18.8965-47.8516 17.627-35.3027C11.2793-33.3984 6.83594-27.9785 6.83594-20.9961C6.83594-12.6465 13.1348-6.49414 22.7539-6.49414ZM78.2227-57.8613C85.9375-57.8613 91.9434-51.8066 91.9434-44.043C91.9434-38.0371 88.2324-32.9102 82.8613-30.8594C80.5176-38.3301 73.3887-43.6035 64.4531-43.9941L64.4531-44.043C64.4531-51.8066 70.459-57.8613 78.2227-57.8613ZM22.6562-11.8652C15.8691-11.8652 12.207-15.8691 12.207-20.8984C12.207-25.2441 14.8438-28.9062 20.5566-30.4688C22.2656-30.9082 22.8516-31.6895 22.998-33.3984C23.877-44.2383 32.0801-52.2461 41.8457-52.2461C49.6582-52.2461 55.5664-47.8516 59.1797-40.7227C59.9121-39.209 60.791-38.7207 62.5977-38.7207C72.4121-38.7207 78.3203-32.5684 78.3203-25.1953C78.3203-17.8223 72.2656-11.8652 64.3555-11.8652ZM105.957-41.2598L114.795-41.2598C116.309-41.2598 117.529-42.5293 117.529-44.043C117.529-45.5566 116.309-46.8262 114.795-46.8262L105.957-46.8262C104.492-46.8262 103.223-45.5566 103.223-44.043C103.223-42.5293 104.492-41.2598 105.957-41.2598ZM102.148-16.1621C103.271-15.0879 104.98-15.1367 106.055-16.1621C107.129-17.2363 107.129-19.043 106.055-20.0684L99.8047-26.3184C98.7305-27.3438 96.9727-27.3926 95.8984-26.3184C94.8242-25.2441 94.8242-23.4375 95.8984-22.4121Z"/>
  </g>
  <g id="Thin-S" transform="matrix(1 0 0 1 804.103 696)">
   <path d="M77.5879-69.9707C78.4668-69.9707 79.248-70.7031 79.248-71.582L79.248-81.9336C79.248-82.8125 78.4668-83.5449 77.5879-83.5449C76.709-83.5449 75.9277-82.8125 75.9277-81.9336L75.9277-71.582C75.9277-70.7031 76.709-69.9707 77.5879-69.9707ZM95.2637-62.5977C95.8496-61.9629 96.9238-61.9629 97.5586-62.5977L104.883-69.9219C105.518-70.5566 105.518-71.582 104.883-72.2168C104.248-72.8516 103.271-72.8516 102.588-72.2168L95.2637-64.8926C94.6289-64.2578 94.6289-63.1836 95.2637-62.5977ZM57.6172-62.5977C58.252-61.9629 59.2773-61.9629 59.9121-62.5977C60.498-63.1836 60.5469-64.2578 59.9121-64.8926L52.5879-72.2168C51.9043-72.8516 50.9277-72.8516 50.293-72.2168C49.6582-71.582 49.6094-70.5566 50.293-69.9219ZM21.875-7.66602L63.7695-7.66602C74.2676-7.66602 82.4707-15.5762 82.4707-25.6348C82.4707-26.0742 82.4219-26.5625 82.4219-26.9531C90.1855-29.4922 95.7031-36.6699 95.7031-44.9219C95.7031-55.0293 87.5977-63.0859 77.5391-63.0859C68.7012-63.0859 61.377-56.8359 59.7656-48.4863C55.2734-54.0039 49.0723-57.373 41.3574-57.373C29.1992-57.373 19.1406-47.6074 17.9688-35.1074C11.6699-33.3496 6.83594-28.3203 6.83594-21.2891C6.83594-13.6719 12.5977-7.66602 21.875-7.66602ZM77.5391-60.0098C85.9863-60.0098 92.5781-53.3691 92.5781-44.9219C92.5781-38.2324 88.2324-32.2754 81.8848-30.0293C79.8828-37.8418 72.4121-43.3105 63.0859-43.4082C62.8906-43.75 62.6953-44.043 62.5-44.3848C62.5-44.5312 62.5-44.7266 62.5-44.9219C62.5-53.3691 69.0918-60.0098 77.5391-60.0098ZM21.8262-10.8398C14.2578-10.8398 10.0098-15.5273 10.0098-21.2402C10.0098-26.4648 13.5254-30.4688 19.3848-32.1777C20.6543-32.5195 21.0449-33.0078 21.1426-34.1797C21.9238-45.3613 30.957-54.1992 41.3574-54.1992C50.293-54.1992 56.6406-48.9258 60.2539-41.748C60.791-40.625 61.4258-40.2832 62.7441-40.2832C72.4609-40.2832 79.248-33.6914 79.248-25.5371C79.248-17.4316 72.5098-10.8398 63.8184-10.8398ZM104.15-43.3105L114.502-43.3105C115.43-43.3105 116.113-43.9941 116.162-44.9219C116.162-45.8008 115.43-46.5332 114.502-46.5332L104.15-46.5332C103.271-46.5332 102.539-45.8008 102.539-44.9219C102.539-43.9941 103.271-43.3105 104.15-43.3105ZM102.588-17.5781C103.271-16.8945 104.248-16.9434 104.883-17.5781C105.518-18.2129 105.518-19.1895 104.883-19.873L97.5586-27.1973C96.9238-27.7832 95.8984-27.7832 95.2637-27.1973C94.6289-26.5625 94.6289-25.4883 95.2637-24.9023Z"/>
  </g>
  <g id="Ultralight-S" transform="matrix(1 0 0 1 507.66 696)">
   <path d="M77.2461-70.4102C77.832-70.4102 78.3203-70.8984 78.3203-71.4355L78.3203-82.5684C78.3203-83.1543 77.832-83.5938 77.2461-83.5938C76.709-83.5938 76.1719-83.1543 76.1719-82.5684L76.1719-71.4355C76.1719-70.8984 76.709-70.4102 77.2461-70.4102ZM58.1055-63.0371C58.4961-62.6465 59.1797-62.6465 59.5703-63.0371C59.9609-63.4277 59.9609-64.1113 59.5703-64.502L51.709-72.3633C51.2695-72.8027 50.6348-72.7539 50.2441-72.3633C49.8535-71.9727 49.8047-71.3379 50.2441-70.8984ZM94.9219-63.0371C95.3125-62.6465 95.9961-62.6465 96.3867-63.0371L104.248-70.8984C104.736-71.3379 104.688-71.9727 104.248-72.3633C103.857-72.7539 103.271-72.8027 102.832-72.3633L94.9219-64.502C94.5312-64.1113 94.5312-63.4277 94.9219-63.0371ZM21.4355-8.25195L63.4766-8.25195C73.7793-8.25195 81.8359-16.0156 81.8359-25.7812C81.8359-26.3672 81.7871-26.9531 81.7383-27.5391C89.5508-30.0293 95.0684-37.207 95.0684-45.3613C95.0684-55.3223 87.1094-63.2324 77.1973-63.2324C68.2129-63.2324 60.8398-56.6895 59.5703-48.0469C55.1758-53.7109 48.9746-57.2754 41.0645-57.2754C29.1016-57.2754 19.2383-47.4609 18.1641-35.0098C11.8652-33.3496 6.83594-28.4668 6.83594-21.4355C6.83594-14.209 12.3047-8.25195 21.4355-8.25195ZM77.1973-61.1328C85.9863-61.1328 92.9199-54.1504 92.9199-45.3613C92.9199-38.3301 88.2324-31.9824 81.3965-29.6387C79.5898-37.5 72.1191-43.0176 62.7441-43.0664C62.3535-43.8477 61.9141-44.5801 61.4746-45.2637C61.4746-45.3125 61.4746-45.3125 61.4746-45.3613C61.4746-54.1504 68.4082-61.1328 77.1973-61.1328ZM21.4355-10.3027C13.4277-10.3027 8.88672-15.332 8.88672-21.4355C8.88672-27.0996 12.793-31.25 18.7988-33.0566C19.8242-33.3496 20.1172-33.7402 20.166-34.5703C20.9473-45.8984 30.3711-55.1758 41.0645-55.1758C50.6348-55.1758 57.1777-49.4629 60.791-42.2852C61.2793-41.4062 61.7676-41.0645 62.8906-41.0645C72.5098-41.0645 79.7852-34.2773 79.7852-25.6836C79.7852-17.2363 72.6074-10.3027 63.4766-10.3027ZM103.223-44.3359L114.355-44.3359C114.99-44.3359 115.381-44.7754 115.43-45.3613C115.479-45.8984 114.99-46.3867 114.355-46.3867L103.223-46.3867C102.686-46.3867 102.197-45.8984 102.197-45.3613C102.197-44.7754 102.686-44.3359 103.223-44.3359ZM102.832-18.3105C103.271-17.8711 103.857-17.9199 104.248-18.3105C104.688-18.7012 104.736-19.3359 104.248-19.7754L96.3867-27.6367C95.9961-28.0273 95.3125-28.0273 94.9219-27.6367C94.5312-27.2461 94.5312-26.5625 94.9219-26.1719Z"/>
  </g>
 </g>
</svg>
